<svg xmlns="http://www.w3.org/2000/svg" role="img" viewBox="-3.63 -3.63 188.50 57.13"><title>imperas_logo.svg</title><path fill="#1e59ae" d="M73.87322 35.50196c-2.13541 2.13804-5.09374 3.22135-8.79418 3.22135-1.34463 0-2.63527-.21354-3.83577-.63801l-1.3317-.46614v10.34089H54.5309V13.92703h5.38067v1.64583l1.53583-.9765c1.16823-.74226 2.5146-1.11985 3.9999-1.11985 3.8827 0 6.81916 1.05984 8.72631 3.14579 1.93289 2.11448 2.9114 5.36707 2.9114 9.6743 0 3.97376-1.08011 7.07008-3.21179 9.20536zm1.77756-20.22856c-2.30368-2.5182-5.73586-3.79684-10.20348-3.79684-1.26144 0-2.44008.23746-3.53578.67039v-.21987h-9.38057V49.96h9.38057V40.35347c1.0197.23958 2.07861.36979 3.16752.36979 4.2499 0 7.68474-1.28122 10.20814-3.8072 2.52074-2.5234 3.79778-6.09625 3.79778-10.61947 0-4.82028-1.15624-8.53112-3.43418-11.02319M47.41908 38.2676h-5.38106V22.97374c0-3.36191-1.5333-5.0676-4.55722-5.0676-.90718 0-1.75663.26039-2.59567.79424-.73332.46346-1.28957 1.02598-1.64996 1.67183l-.1272.22652V38.2676h-5.3816v-16.1949c0-1.26556-.40052-2.289-1.19063-3.03898-.80252-.75785-1.88796-1.12758-3.32019-1.12758-.76198 0-1.59316.28386-2.47127.83852-.75985.47919-1.35876 1.03904-1.77702 1.65876l-.1708.25266V38.26759h-5.38173V13.92703h3.65564l.62185 1.15624.59119 1.09637.94318-.81518c1.4469-1.2525 3.24685-1.88795 5.35146-1.88795 2.86966 0 5.13787.71612 6.74197 2.12755l.65985.58078.66051-.57811c.64732-.56772 1.47023-1.04425 2.44474-1.4141 1.2645-.47386 2.54514-.71612 3.80404-.71612 2.6858 0 4.80295.77598 6.29198 2.30728 1.48596 1.53116 2.23794 3.67177 2.23794 6.36184zm-.80305-23.87697c-1.88022-1.93235-4.48068-2.91406-7.72687-2.91406-1.4989 0-3.01606.28386-4.51495.84638-.89905.3416-1.66623.78905-2.35994 1.28584-1.91289-1.41037-4.40616-2.13222-7.43622-2.13222-2.14941 0-4.03736.57812-5.66186 1.6589l-.36719-.68239-.28332-.52599h-6.85086v28.34046h9.38159V21.32632c.25573-.314.58119-.61559 1.01704-.88905.69065-.44012 1.14384-.53119 1.4021-.53119.89745 0 1.5333.19013 1.94475.57812.24213.23173.56612.64839.56612 1.5885v18.19484H35.10792V21.18366c.1996-.28547.46986-.55573.84745-.79585.51825-.32813 1.0021-.48173 1.52543-.48173 1.61982 0 2.55727.50253 2.55727 3.06766v17.2938h9.38096V22.14563c0-3.22659-.9421-5.83586-2.803-7.755m43.47025 8.04926c.89945-2.78647 2.6546-4.1067 5.47386-4.1067 3.09886 0 4.83842 1.32023 5.43467 4.1067H90.08628zm15.27562-7.32022c-2.49207-2.453-5.82012-3.69777-9.89455-3.69777-3.84564 0-7.19089 1.39583-9.93829 4.1483-2.74726 2.75512-4.1379 6.3801-4.1379 10.78626 0 4.46855 1.2761 8.01793 3.79164 10.54657 2.51554 2.5338 5.96079 3.81761 10.23668 3.81761 4.52335 0 7.99727-.9557 10.32948-2.83846l.54532-.4401-3.26659-6.44-.84278.84637c-1.29783 1.2969-3.26552 1.96089-5.84879 1.96089-2.04154 0-3.67177-.52346-4.84627-1.54943-.96865-.84891-1.53903-1.98688-1.7733-3.42178h18.7114l.15267-.67185c.36452-1.6197.54172-2.8098.54172-3.64058 0-3.78377-1.2657-6.94769-3.76044-9.40603m14.92576-1.84369v-1.3697h-7.93887v28.3274h7.93887V24.22371c0-1.6901.48172-3.07286 1.4697-4.23176.9541-1.1145 1.99475-1.65876 3.18218-1.65876 1.16144 0 2.20048.31506 3.17286.96358l.81824.54158 3.42805-6.92689-.70411-.40359c-1.27237-.73185-3.00673-1.08597-5.2984-1.08597-2.36288 0-4.39563.62238-6.06852 1.85408m27.72997 16.06734c0 3.25511-1.45863 4.70828-4.73188 4.70828-2.89726 0-3.28925-1.36717-3.28925-2.70313 0-1.69263.67332-3.94004 6.49717-3.94004.35466 0 .86531.05733 1.52396.17453v1.76036zm9.64776 7.8123c-1.13597-.72648-1.73729-2.78123-1.73729-5.94248v-5.6796c0-5.44-1.0133-9.07004-3.09325-11.10132-2.04795-1.99995-5.2532-3.01032-9.5291-3.01032-3.06392 0-5.75719.54945-8.0038 1.62236l-.65198.31506 1.81728 6.5077.93331-.46092c1.4493-.71092 3.29326-1.0729 5.48387-1.0729 3.60124 0 4.67055 1.36969 4.9652 2.75779-.57998-.09907-1.12796-.16413-1.60662-.16413-4.43056 0-7.92113.9349-10.3744 2.7786-2.52794 1.90102-3.81204 4.56495-3.81204 7.91127 0 2.88006.92704 5.1483 2.7574 6.742 1.79461 1.56767 4.26122 2.36191 7.32781 2.36191 1.6333 0 3.21992-.3177 4.72122-.9479.99064-.41403 1.77995-.92965 2.41327-1.51557.284.43489.63198.84893 1.05064 1.24216.87598.80987 1.88262 1.22131 2.99726 1.22131.9013 0 1.71862-.11978 2.43194-.35676.8373-.27342 1.57462-.9635 2.1946-2.05203l.40933-.71091-.69465-.44531m6.93183-23.88738c-2.03062 1.3801-3.10792 3.38272-3.19592 5.96332-.13467 3.78897 2.2586 6.83316 7.10782 9.0415 2.45994 1.12758 3.49725 1.8593 3.93457 2.27075.52399.49732.76265 1.1041.73731 1.85929-.02.55465-.06 1.71609-2.82126 1.61716-2.15328-.07027-4.00923-.80198-5.6732-2.22382l-.84797-.72398-3.22792 6.58836.69732.40624c1.71329.99216 3.09459 1.64579 4.22256 1.99474 1.12797.34895 2.63193.55728 4.46789.62238 3.32525.11719 6.03985-.5651 8.0678-2.02339 2.0986-1.50517 3.21058-3.65616 3.30658-6.3905.06933-2.04154-.44799-3.83576-1.5413-5.33052-1.07064-1.4609-2.8466-2.737-5.2812-3.79418-2.7666-1.19797-3.8599-1.87235-4.29189-2.2266-.71065-.58586-.69332-1.03118-.68932-1.17704.03067-.89052.348-1.70303 2.45328-1.6301 2.19727.07813 3.89857.64839 5.0572 1.70303l.91065.82558 2.7186-6.59624-.67199-.37239c-2.5026-1.38276-5.23453-2.13541-8.12246-2.23688-2.9066-.1016-5.3692.51559-7.31715 1.8333M0 40.23887h7.97376v-28.3118H0v28.3118"/><path fill="#f68b1a" d="M.00417 2.09666V8.5001h7.9696V.00552H0l.00417 2.09114"/><path fill="#1e59ae" d="M68.2067 30.92408c-.80372.8749-2.29008 1.32023-4.42083 1.32023-.68851 0-1.30517-.1536-1.87435-.45572V20.64927c.59425-.44373 1.2057-.66505 1.90088-.66505 2.11822 0 3.65365.42705 4.4395 1.2369.80104.82811 1.22556 2.52594 1.22556 4.914 0 2.25769-.42705 3.86965-1.27077 4.78896zm1.48062-11.09613c-1.18903-1.22397-3.16552-1.84368-5.87492-1.84368-1.3113 0-2.51287.48172-3.5707 1.43476l-.33013.2996V32.87708l.42812.29946c1.03278.71878 2.15875 1.06771 3.44618 1.06771 2.71407 0 4.69842-.66412 5.89465-1.96875 1.19277-1.29944 1.7969-3.36445 1.7969-6.14038 0-3.0026-.586-5.06507-1.7901-6.30718"/></svg>