<svg xmlns:dc="http://purl.org/dc/elements/1.1/" xmlns:cc="http://creativecommons.org/ns#" xmlns:rdf="http://www.w3.org/1999/02/22-rdf-syntax-ns#" xmlns:svg="http://www.w3.org/2000/svg" xmlns="http://www.w3.org/2000/svg" xmlns:sodipodi="http://sodipodi.sourceforge.net/DTD/sodipodi-0.dtd" xmlns:inkscape="http://www.inkscape.org/namespaces/inkscape" version="1.1" x="0px" y="0px" viewBox="0 0 100 125"><g transform="translate(0,-952.36218)"><path d="m 58.538114,975.36953 a 1.0001,1.0001 0 0 0 -0.094,0.031 l -0.094,0 -23.0312,0 c -2.2109,0 -4,1.8203 -4,4.0313 l 0,48.40617 c 0,2.2123 1.7891,4.0312 4,4.0312 l 3.0312,0 0,0.5313 c 0,1.1048 0.864,2 1.9688,2 l 36.4688,0 c 1.1048,0 2,-0.8952 2,-2 l 0,-13.25 c 0,-1.1048 -0.8952,-2 -2,-2 l -2.625,0 0,-26.74997 a 1.0001,1.0001 0 0 0 -0.031,-0.2187 1.0001,1.0001 0 0 0 0,-0.031 1.0001,1.0001 0 0 0 -0.031,-0.062 1.0001,1.0001 0 0 0 0,-0.031 1.0001,1.0001 0 0 0 -0.031,-0.063 1.0001,1.0001 0 0 0 -0.031,-0.031 1.0001,1.0001 0 0 0 0,-0.031 1.0001,1.0001 0 0 0 -0.031,-0.031 1.0001,1.0001 0 0 0 -0.031,-0.062 1.0001,1.0001 0 0 0 -0.031,-0.031 1.0001,1.0001 0 0 0 -0.031,-0.063 1.0001,1.0001 0 0 0 -0.031,-0.031 1.0001,1.0001 0 0 0 -0.031,-0.031 l -14.5937,-14 a 1.0001,1.0001 0 0 0 -0.5313,-0.2813 1.0001,1.0001 0 0 0 -0.1562,0 1.0001,1.0001 0 0 0 -0.031,-0.031 z m -23.2188,2.0313 22.25,0 0,9.9687 c 0,2.2117 1.8207,4.0313 4.0312,4.0313 l 10.5626,0 0,25.74997 -31.8438,0 c -1.1048,0 -1.9688,0.8952 -1.9688,2 l 0,10.7187 -3.0312,0 c -1.1291,0 -2,-0.8993 -2,-2.0312 l 0,-48.40617 c 0,-1.1292 0.8709,-2.0313 2,-2.0313 z m 24.25,1.3437 10.375,9.9376 0.75,0.7187 -9.0938,0 c -1.1295,0 -2.0312,-0.9007 -2.0312,-2.0313 l 0,-8.625 z m -22.75,14.9376 a 1.0059664,1.0059664 0 0 0 0.2188,2 l 31.5,0 a 1.0001,1.0001 0 1 0 0,-2 l -31.5,0 a 1.0001,1.0001 0 0 0 -0.125,0 1.0019512,1.0019512 0 0 0 -0.094,0 z m 0,5.9062 a 1.0059664,1.0059664 0 0 0 0.2188,1.99997 l 31.5,0 a 1.0001,1.0001 0 1 0 0,-1.99997 l -31.5,0 a 1.0001,1.0001 0 0 0 -0.2188,0 z m 0,5.90617 a 1.0059664,1.0059664 0 0 0 0.2188,2 l 31.5,0 a 1.0001,1.0001 0 1 0 0,-2 l -31.5,0 a 1.0001,1.0001 0 0 0 -0.2188,0 z m 0,5.9063 a 1.0059664,1.0059664 0 0 0 0.2188,2 l 16.9687,0 a 1.0001,1.0001 0 1 0 0,-2 l -16.9687,0 a 1.0001,1.0001 0 0 0 -0.2188,0 z m 20.0312,10.4375 c 1.1325,0 2.0389,0.3599 2.7188,1.0625 0.6799,0.7026 1,1.6861 1,2.9375 0,1.241 -0.3253,2.2054 -1,2.9062 -0.6746,0.7011 -1.5896,1.0626 -2.7188,1.0626 -1.143,0 -2.0441,-0.365 -2.7187,-1.0626 -0.6747,-0.6974 -1,-1.6512 -1,-2.875 0,-0.7827 0.1096,-1.4374 0.3437,-1.9687 0.1748,-0.3915 0.4165,-0.7514 0.7188,-1.0625 0.3024,-0.3111 0.6399,-0.5372 1,-0.6875 0.4789,-0.2028 1.0306,-0.3125 1.6562,-0.3125 z m 8.5,0 c 0.9544,0 1.6822,0.1934 2.2188,0.5938 0.5366,0.4002 0.8774,0.9501 1.0312,1.6562 l -1.5312,0.3125 c -0.1084,-0.3775 -0.3262,-0.6878 -0.625,-0.9063 -0.2989,-0.2182 -0.6463,-0.3124 -1.0938,-0.3124 -0.6782,0 -1.2247,0.1948 -1.625,0.625 -0.4003,0.4299 -0.5937,1.0603 -0.5937,1.9062 0,0.9124 0.1883,1.6063 0.5937,2.0625 0.4055,0.4562 0.9366,0.6875 1.5938,0.6875 0.325,0 0.6418,-0.06 0.9688,-0.1875 0.3267,-0.1276 0.6095,-0.287 0.8437,-0.4687 l 0,-0.9688 -1.7813,0 0,-1.3125 3.3438,0 0,3.0625 c -0.3251,0.3146 -0.7892,0.6042 -1.4062,0.8438 -0.6171,0.2391 -1.2423,0.375 -1.875,0.375 -0.8041,0 -1.4961,-0.1939 -2.0938,-0.5313 -0.5978,-0.3373 -1.0431,-0.8101 -1.3438,-1.4375 -0.3005,-0.6275 -0.4687,-1.3249 -0.4687,-2.0625 0,-0.8005 0.1957,-1.5028 0.5313,-2.125 0.3355,-0.6223 0.822,-1.1054 1.4687,-1.4375 0.4928,-0.2552 1.1097,-0.375 1.8437,-0.375 z m -18.4374,0.1875 1.5624,0 0,6.3437 3.8438,0 0,1.2813 -5.4062,0 0,-7.625 z m 9.9374,1.1563 c -0.6396,0 -1.1397,0.2175 -1.5312,0.6562 -0.3915,0.4387 -0.5938,1.0844 -0.5938,1.9688 0,0.8703 0.1918,1.5506 0.5938,2 0.402,0.4492 0.9126,0.6562 1.5312,0.6562 0.6187,0 1.1346,-0.2106 1.5313,-0.6562 0.3968,-0.4458 0.5937,-1.1088 0.5937,-2 0,-0.8812 -0.1763,-1.5665 -0.5624,-2 -0.3862,-0.4334 -0.9229,-0.625 -1.5626,-0.625 z m -12.9687,5 1.4687,0 0,1.4687 -1.4687,0 0,-1.4687 z" style="text-indent:0;text-transform:none;direction:ltr;block-progression:tb;baseline-shift:baseline;color:#000000;enable-background:accumulate;" fill="#000000" fill-opacity="1" stroke="none" marker="none" visibility="visible" display="inline" overflow="visible"/></g><text x="0" y="115" fill="#000000" font-size="5px" font-weight="bold" font-family="'Helvetica Neue', Helvetica, Arial-Unicode, Arial, Sans-serif">Created by mantisshrimpdesign</text><text x="0" y="120" fill="#000000" font-size="5px" font-weight="bold" font-family="'Helvetica Neue', Helvetica, Arial-Unicode, Arial, Sans-serif">from the Noun Project</text></svg>