<?xml version="1.0" encoding="UTF-8"?>
<!-- Generator: Adobe Illustrator 25.2.1, SVG Export Plug-In . SVG Version: 6.00 Build 0) -->
<svg xmlns="http://www.w3.org/2000/svg" xmlns:xlink="http://www.w3.org/1999/xlink" id="Слой_1" x="0px" y="0px" viewBox="0 0 294.1 258.5" style="enable-background:new 0 0 294.1 258.5;" xml:space="preserve"> <style type="text/css"> .st0{fill:#6A57A1;} .st1{fill-rule:evenodd;clip-rule:evenodd;fill:#FFFFFF;} .st2{fill:#FFFFFF;} </style> <rect y="0" class="st0" width="294.1" height="258.5"/> <g> <path class="st1" d="M263.6,186.6L263.6,186.6h-1.1l-0.1-0.1v-11.2l-0.2,0l-2.8,11.2l-0.1,0.1h-1.2l-0.1-0.1l-2.8-11.2l-0.2,0v11.2 l-0.1,0.1h-1.1l-0.1-0.1v-14.8l0.1-0.1h1.7l0.1,0.1l3,12.1h0.2l3-12.1l0.1-0.1h1.7l0.1,0.1v14.8L263.6,186.6z M242.7,184.1 L242.7,184.1c-0.2,0.8-0.6,1.5-1.1,1.9c-0.5,0.5-1.2,0.7-1.9,0.7h-0.5l-0.1-0.1v-1.1l0.1-0.1h0.5c0.9,0,1.5-0.5,1.8-1.6l0.2-0.7 l-3.6-11.4l0.1-0.1h1.2l0.1,0.1l2.8,9.2h0.2l2.2-9.2l0.1-0.1h1.2l0.1,0.1L242.7,184.1z M229.4,175.5L229.4,175.5 c0-0.8-0.2-1.5-0.7-1.9c-0.4-0.5-1.1-0.7-1.9-0.7h-1.5l-0.1,0.1v7.9l0.1,0.1h1.5c0.8,0,1.5-0.2,1.9-0.7c0.4-0.5,0.7-1.1,0.7-1.9 V175.5z M229.7,181.2L229.7,181.2c-0.7,0.7-1.7,1.1-2.9,1.1h-1.5l-0.1,0.1v4.1l-0.1,0.1h-1.1l-0.1-0.1v-14.8l0.1-0.1h2.9 c1.2,0,2.2,0.4,2.9,1.1c0.7,0.7,1.1,1.7,1.1,2.9v2.9C230.8,179.6,230.4,180.5,229.7,181.2z M214.1,175.4L214.1,175.4 c0-0.9-0.2-1.6-0.6-2.1c-0.4-0.5-1-0.8-1.7-0.8c-0.8,0-1.3,0.3-1.7,0.8c-0.4,0.5-0.6,1.2-0.6,2.1v7.2c0,0.9,0.2,1.6,0.6,2.1 c0.4,0.5,1,0.8,1.7,0.8c0.8,0,1.3-0.3,1.7-0.8c0.4-0.5,0.6-1.2,0.6-2.1V175.4z M214.5,185.7L214.5,185.7c-0.7,0.8-1.6,1.1-2.7,1.1 c-1.1,0-2-0.4-2.7-1.1c-0.7-0.8-1-1.8-1-3v-7.2c0-1.3,0.3-2.3,1-3c0.7-0.8,1.6-1.1,2.7-1.1c1.1,0,2,0.4,2.7,1.1c0.7,0.8,1,1.8,1,3 v7.2C215.5,183.9,215.1,185,214.5,185.7z M199.2,177.1L199.2,177.1c0-1.6-0.8-2.4-2.4-2.4H196l-0.1,0.1v8.2l0.1,0.1h0.8 c1.6,0,2.4-0.8,2.4-2.4V177.1z M194.5,174.8L194.5,174.8l-0.1-0.1h-0.8c-1.6,0-2.4,0.8-2.4,2.4v3.6c0,1.6,0.8,2.4,2.4,2.4h0.8 l0.1-0.1V174.8z M199.5,183.5L199.5,183.5c-0.7,0.7-1.6,1-2.7,1H196l-0.1,0.1v1.9l-0.1,0.1h-1.1l-0.1-0.1v-1.9l-0.1-0.1h-0.8 c-1.1,0-2-0.3-2.7-1c-0.7-0.7-1-1.6-1-2.7v-3.6c0-1.2,0.3-2.1,1-2.7c0.7-0.7,1.6-1,2.7-1h0.8l0.1-0.1v-1.8l0.1-0.1h1.1l0.1,0.1v1.8 l0.1,0.1h0.8c1.1,0,2,0.3,2.7,1c0.7,0.7,1,1.6,1,2.7v3.6C200.5,181.9,200.2,182.8,199.5,183.5z M173,169.6L173,169.6 c-0.8,0-1.5-0.3-2-0.8c-0.5-0.5-0.8-1.2-0.8-2v-0.8l0.1-0.1h1l0.1,0.1v0.8c0,0.5,0.1,0.8,0.4,1.1c0.3,0.3,0.6,0.4,1.1,0.4 c0.5,0,0.8-0.1,1.1-0.4c0.3-0.3,0.4-0.7,0.4-1.1v-0.8l0.1-0.1h1l0.1,0.1v0.8c0,0.8-0.3,1.5-0.8,2 C174.5,169.4,173.8,169.6,173,169.6z M176.6,186.6L176.6,186.6h-1.1l-0.1-0.1V175l-0.2,0l-4.4,11.6l-0.1,0.1h-1.3l-0.1-0.1v-14.8 l0.1-0.1h1.1l0.1,0.1v11.5l0.2,0l4.4-11.6l0.1-0.1h1.3l0.1,0.1v14.8L176.6,186.6z M160.5,186.6L160.5,186.6h-1.1l-0.1-0.1V175 l-0.2,0l-4.4,11.6l-0.1,0.1h-1.3l-0.1-0.1v-14.8l0.1-0.1h1.1l0.1,0.1v11.5l0.2,0l4.4-11.6l0.1-0.1h1.3l0.1,0.1v14.8L160.5,186.6z M145.3,186.7L145.3,186.7h-0.5c-1.7,0-2.5-0.9-2.5-2.7v-2.3c0-1.3-0.7-2-2.1-2h-1.3l-0.1,0.1v6.7l-0.1,0.1h-1.1l-0.1-0.1v-14.8 l0.1-0.1h1.1l0.1,0.1v6.6l0.1,0.1h1.3c0.7,0,1.2-0.2,1.5-0.5c0.3-0.3,0.5-0.9,0.5-1.7v-2.3c0-0.8,0.2-1.4,0.6-1.8 c0.4-0.4,1-0.6,1.7-0.6h0.6l0.1,0.1v1.1l-0.1,0.1h-0.7c-0.3,0-0.5,0.1-0.7,0.3c-0.2,0.2-0.3,0.5-0.3,0.8v2.4c0,1.3-0.4,2.2-1.2,2.7 l0,0.2c0.4,0.1,0.7,0.4,0.9,0.9c0.2,0.5,0.4,1,0.4,1.7v2.4c0,0.9,0.4,1.4,1.2,1.4h0.4l0.1,0.1v1.1L145.3,186.7z M127.8,181.2 L127.8,181.2h1.1l0.1,0.1v1.2c0,1.4-0.3,2.4-1,3.2c-0.7,0.8-1.6,1.1-2.7,1.1c-1.1,0-2-0.4-2.7-1.2c-0.7-0.8-1-1.8-1-3.2v-6.9 c0-1.4,0.3-2.4,1-3.2c0.7-0.8,1.6-1.2,2.7-1.2c1.1,0,2,0.4,2.7,1.1c0.7,0.8,1,1.8,1,3.2v1.2L129,177h-1.1l-0.1-0.1v-1.2 c0-1-0.2-1.8-0.6-2.3c-0.4-0.5-1-0.8-1.7-0.8c-1.6,0-2.4,1-2.4,3v6.9c0,2,0.8,3,2.4,3c0.8,0,1.3-0.3,1.7-0.8 c0.4-0.5,0.6-1.3,0.6-2.3v-1.2L127.8,181.2z M109.6,169.6L109.6,169.6c-0.8,0-1.5-0.3-2-0.8c-0.5-0.5-0.8-1.2-0.8-2v-0.8l0.1-0.1h1 l0.1,0.1v0.8c0,0.5,0.1,0.8,0.4,1.1c0.3,0.3,0.6,0.4,1.1,0.4c0.5,0,0.8-0.1,1.1-0.4s0.4-0.7,0.4-1.1v-0.8l0.1-0.1h1l0.1,0.1v0.8 c0,0.8-0.3,1.5-0.8,2C111.2,169.4,110.5,169.6,109.6,169.6z M113.2,186.6L113.2,186.6h-1.1l-0.1-0.1V175l-0.2,0l-4.4,11.6l-0.1,0.1 h-1.3l-0.1-0.1v-14.8l0.1-0.1h1.1l0.1,0.1v11.5l0.2,0l4.4-11.6l0.1-0.1h1.3l0.1,0.1v14.8L113.2,186.6z M97.1,186.6L97.1,186.6H96 l-0.1-0.1V175l-0.2,0l-4.4,11.6l-0.1,0.1h-1.3l-0.1-0.1v-14.8l0.1-0.1H91l0.1,0.1v11.5l0.2,0l4.4-11.6l0.1-0.1h1.3l0.1,0.1v14.8 L97.1,186.6z M80.3,181.2L80.3,181.2h1.1l0.1,0.1v1.2c0,1.4-0.3,2.4-1,3.2c-0.7,0.8-1.6,1.1-2.7,1.1c-1.1,0-2-0.4-2.7-1.2 c-0.7-0.8-1-1.8-1-3.2v-6.9c0-1.4,0.3-2.4,1-3.2c0.7-0.8,1.6-1.2,2.7-1.2c1.1,0,2,0.4,2.7,1.1c0.7,0.8,1,1.8,1,3.2v1.2l-0.1,0.1 h-1.1l-0.1-0.1v-1.2c0-1-0.2-1.8-0.6-2.3c-0.4-0.5-1-0.8-1.7-0.8c-1.6,0-2.4,1-2.4,3v6.9c0,2,0.8,3,2.4,3c0.8,0,1.3-0.3,1.7-0.8 c0.4-0.5,0.6-1.3,0.6-2.3v-1.2L80.3,181.2z M64.9,181.2L64.9,181.2H66l0.1,0.1v1.2c0,1.4-0.3,2.4-1,3.2s-1.6,1.1-2.7,1.1 c-1.1,0-2-0.4-2.7-1.2c-0.7-0.8-1-1.8-1-3.2v-6.9c0-1.4,0.3-2.4,1-3.2c0.7-0.8,1.6-1.2,2.7-1.2c1.1,0,2,0.4,2.7,1.1 c0.7,0.8,1,1.8,1,3.2v1.2L66,177h-1.1l-0.1-0.1v-1.2c0-1-0.2-1.8-0.6-2.3c-0.4-0.5-1-0.8-1.7-0.8c-1.6,0-2.4,1-2.4,3v6.9 c0,2,0.8,3,2.4,3c0.8,0,1.3-0.3,1.7-0.8c0.4-0.5,0.6-1.3,0.6-2.3v-1.2L64.9,181.2z M49.4,175.4L49.4,175.4c0-0.9-0.2-1.6-0.6-2.1 c-0.4-0.5-1-0.8-1.7-0.8c-0.8,0-1.3,0.3-1.7,0.8c-0.4,0.5-0.6,1.2-0.6,2.1v7.2c0,0.9,0.2,1.6,0.6,2.1c0.4,0.5,1,0.8,1.7,0.8 c0.8,0,1.3-0.3,1.7-0.8c0.4-0.5,0.6-1.2,0.6-2.1V175.4z M49.8,185.7L49.8,185.7c-0.7,0.8-1.6,1.1-2.7,1.1c-1.1,0-2-0.4-2.7-1.1 c-0.7-0.8-1-1.8-1-3v-7.2c0-1.3,0.3-2.3,1-3c0.7-0.8,1.6-1.1,2.7-1.1c1.1,0,2,0.4,2.7,1.1c0.7,0.8,1,1.8,1,3v7.2 C50.8,183.9,50.5,185,49.8,185.7z M34.3,175.5L34.3,175.5c0-0.8-0.2-1.5-0.7-1.9c-0.4-0.5-1.1-0.7-1.9-0.7h-1.5L30,173v7.9l0.1,0.1 h1.5c0.8,0,1.5-0.2,1.9-0.7c0.4-0.5,0.7-1.1,0.7-1.9V175.5z M34.6,181.2c-0.7,0.7-1.7,1.1-2.9,1.1h-1.5l-0.1,0.1v4.1l-0.1,0.1h-1.1 l-0.1-0.1v-14.8l0.1-0.1h2.9c1.2,0,2.2,0.4,2.9,1.1c0.7,0.7,1.1,1.7,1.1,2.9v2.9C35.7,179.6,35.3,180.5,34.6,181.2z"/> <path class="st1" d="M92.2,87.7c-2.6,0.7-1.4,4.3,1,3.6C95.6,90.7,94.6,87.1,92.2,87.7 M118.4,145.1c-2.4,1-0.9,4.4,1.4,3.5 C121.9,147.8,120.9,144.1,118.4,145.1z M160.8,97c-2.5,0.7-1.5,4.3,1,3.6C164.1,100,163.3,96.4,160.8,97z M204.1,88.6 c-2.4,1-0.8,4.4,1.5,3.4C207.8,91.1,206.5,87.5,204.1,88.6z M187.6,128.6c-2.5,0.9-1.1,4.3,1.2,3.6 C191.1,131.5,190,127.7,187.6,128.6z M88.4,109.5c-2.4,0.6-1.6,4.3,0.9,3.7c0.9-0.2,1.6-1.2,1.4-2.3 C90.5,110,89.5,109.2,88.4,109.5z M178.4,94.5c-2.5,0.7-1.5,4.3,0.9,3.7c0.9-0.2,1.6-1.2,1.3-2.3C180.4,95,179.4,94.3,178.4,94.5z M173.8,136.4c-2.7,1-0.9,4.4,1.2,3.5C177.4,139,176.1,135.5,173.8,136.4z M122.7,111.6c-2.6,0.6-1.6,4.3,0.8,3.7 C125.8,114.7,125,111.1,122.7,111.6z M98.5,117.9c-2.4,0.7-1.4,4.4,1.1,3.6C101.7,120.9,101,117.1,98.5,117.9z M118.5,94.9 c-0.6,0.2-0.8,0.3-1.1,0.8c-0.9,1.6,0.5,3.4,2.2,2.8C121.8,97.8,120.8,94.1,118.5,94.9z M146,101.4c-2.5,0.5-1.8,4.1,0.6,3.7 C149,104.7,148.5,100.9,146,101.4z M192,90.8c-2.2,0.6-1.6,4.3,0.9,3.7C195.3,93.9,194.5,90.1,192,90.8z M190.3,104.2 c-2.4,0.8-1.2,4.4,1.2,3.6C193.7,107.1,192.7,103.4,190.3,104.2z M132,97.7c-2.5,0.9-1.1,4.3,1.2,3.6 C135.5,100.5,134.4,96.9,132,97.7z M87.1,97.9c-2.6,0.5-1.8,4.1,0.6,3.7C90.1,101.3,89.6,97.5,87.1,97.9z M164.4,116.7 c-2.5,0.8-1.2,4.4,1.2,3.6C167.9,119.6,166.8,116,164.4,116.7z M26.9,161.8v2.4c1,0.2,12.9,0.1,15,0.1c75.1,0,150.3,0,225.4,0v-2.5 l-102.1,0l0-10.1c0-0.8-0.2-2.5,0.2-3.1c0.7-0.9,4-4,5.1-5c0.5-0.5,1.2-1.3,1.7-1.6c1.1,0.4,1.8,0.8,3.4,0.4 c3.4-0.9,4.3-5.1,2.1-7.4c-2.2-2.2-6.3-1.5-7.4,1.8c-0.5,1.6,0,2.1,0.2,3.3c-0.8,0.6-4.5,4.5-5.6,5.5c-2.3,2.3-2.2,1.6-2.2,5.1 c0,3.7,0.1,7.3,0,11l-1.8,0c-0.2-7.7,0.1-15.5,0-23.3c0-0.9-0.1-0.8,0.4-1.2l4.2-4.1c0.7-0.7,1-1.3,2.1-1.3c5.5,0,11-0.1,16.5,0 c0.9,2.1,2.7,3.3,5.1,2.9c4.8-0.9,4.7-8.2-0.4-8.7c-1.3-0.1-2.4,0.3-3.2,0.9c-0.9,0.7-1.1,1.3-1.6,2.4l-14.6,0 c0.3-0.5,6.5-6.7,6.8-6.7c0.5-0.2,12.2,0,13.4,0c1.1,0,2-1.3,2.6-1.9l13.5-13.5c1.1-1.1,0.8-1.8,0.7-3.8c0-2.9-0.1-5.9-0.2-8.8 c4.8-1.7,3.7-9-1.5-8.8c-4.6,0.1-6.1,6.8-1,8.8c0,2.1,0,4.3,0.1,6.3c0,1,0,2.1,0.1,3.2c0,1.7-0.1,1.4-1,2.2c-1.1,1.1-2,2.1-3.1,3.2 c-1,1.1-2.1,2.1-3.2,3.1c-2.1,2.2-4.2,4.3-6.3,6.4c-0.9,0.9-0.6,1-2.2,1c-2.5,0-7.4,0.2-9.4-0.1l10-10.1c1.2,0.3,1.8,0.8,3.4,0.4 c3.3-0.9,4.3-5,2.1-7.3c-2.2-2.3-6.4-1.7-7.4,1.7c-0.4,1.5-0.1,2.1,0.3,3.3c-1.1,1.1-8.6,8.8-9.2,9.1l0-6.2c0-1.1,0-0.9,0.5-1.4 c2.8-2.8,5.1-5.4,8.1-8.1c1.4-1.3,2.7-2.7,4-4.1c0.6-0.6,0.4-0.5,1.3-0.3c4.3,1,7-4.5,4-7.5c-3.4-3.4-9.5,0.3-6.8,5.6 c-0.4,0.5-1.1,1.1-1.5,1.6l-9.1,9.2c-3.1,3.1-3.1,1.9-3.1,6.1c0,2,0,4.1,0,6.1c0,1.7,0.2,1.4-0.7,2.3L160.8,134 c-1.3,1.3-2.5,2-2.5,3.5c0,8,0.2,16.2,0,24.3l-1.8,0c-0.2-10.4,0-21,0-31.4c0-1.6-0.2-1.3,0.7-2.1c1.9-1.9,3.8-3.8,5.7-5.7 c1.3,0.2,1.7,0.7,3.4,0.2c3.3-1,4-5.1,1.8-7.3c-2.2-2.3-6.4-1.5-7.4,1.9c-0.4,1.4-0.1,2.2,0.4,3.4c-0.4,0.7-5.2,5.3-6,6.1 c-0.6,0.6-1.1,0.9-1.1,2c-0.1,11,0.2,22.1,0,33.1l-1.9,0c0-3.3-0.1-37.5,0.1-37.7l3-3c1-1,2-2,3-3l4.6-4.6c0.3-0.3,0.5-0.5,0.8-0.8 l2.2-2.2c2.4-2.3,5-5.1,7.5-7.5c0.7-0.6,2.4-2.6,3.1-3c1.2,0.4,1.6,0.9,3.2,0.7c3.4-0.5,4.8-4.5,2.7-7.2c-2.5-3.2-8.9-1.6-7.5,4.5 l-22.5,22.4l0-9.4c0-0.7-0.1-0.8,0.3-1.2c1.7-1.7,5.6-5.7,7-6.9c1.4,0.2,1.8,0.7,3.4,0.1c3.2-1.2,3.8-5.1,1.4-7.5 c-2.3-2.3-6.6-0.8-7.2,2.5c-0.3,1.5,0.1,2.1,0.6,3.2l-6.4,6.5c-1.1,1.1-1.5,1.1-1.5,2.8c0,5.7,0,11.4,0,17.1 c0,11.4,0.2,22.9,0,34.3l-1.9,0v-54.4c0.8-0.3,1.8-1.3,2.2-1.9c1.9-2.7-0.1-6.9-3.9-6.6c-3.7,0.2-5.3,4.5-3.2,7.1 c0.8,1,1.1,1,2.4,1.6l0,54.2l-1.9,0c-0.2-11.1,0-22.3,0-33.4c0-5.6,0-11.2,0-16.7c0-2.2,0.3-2.2-0.9-3.4c-1-1-5.6-5.5-6.2-6.2 c0.7-1.6,1.2-3,0.1-4.7c-0.7-1.1-2-2.2-3.9-2.2c-3.4,0-5.6,4-3.6,7c0.7,1,2.3,2.1,4.2,1.8c1.5-0.2,0.9-0.6,2,0.5l4.4,4.5 c0.5,0.5,1.3,0.9,1.3,1.8c0,1,0,2,0,2.9v36.2c0,3.9,0.1,8,0,12l-1.8,0c-0.1-6.5,0-13.2,0-19.8v-24.8c0-2.6,0.3-2.2-1.2-3.7 l-9.9-9.9c-1.6-1.6-3.4-3.2-4.9-4.9c0.4-1.1,0.7-2,0.2-3.4c-1.1-3.2-5.2-3.9-7.4-1.6c-1.4,1.5-1.7,4.1-0.3,5.8 c0.6,0.7,1.2,1.3,2.4,1.6c0.6,0.1,1.2,0.2,1.8,0.1c0.6-0.1,1-0.4,1.5-0.4c0.5,0.5,2.2,2.1,2.4,2.5l-14.4,0c-0.8,0-1.7,0.2-2.1-0.3 l-5.9-6c-1.2-1.2-3.5-3.8-4.8-4.8c0.3-1.3,0.9-1.6,0.6-3.3c-0.6-3.3-4.7-4.8-7.2-2.6c-1.4,1.3-2.3,3.6-0.9,5.7 c0.5,0.7,1.2,1.4,2.1,1.8c1.4,0.6,2.1,0.2,3.4,0.1c1.2,1.1,4.9,4.9,5.6,5.8l-8.3,0c-0.5-2.2-1.7-3.9-4-4c-5.3-0.4-6.4,6.7-1.9,8.5 c2.3,0.9,4.8-0.4,5.5-1.9c2.2,0,4.4,0,6.6,0c5.8,0,4-0.7,7.3,2.6c0.7,0.7,1,1.1,2.2,1.1l16.4,0c0.5,0,1.1,0,1.6,0 c0.8,0,0.8,0,1.2,0.4c2.2,2.2,4.4,4.3,6.6,6.5c0.6,0.6,1.1,1.1,1.7,1.7c0.3,0.3,1.5,1.4,1.5,1.8c0.1,0.7,0,29.7,0,32.7 c0,4.3,0.1,8.8,0,13.1l-1.8,0c-0.2-8.9,0-18,0-26.9l0-10.1c0-1.5-0.4-1.6-1.1-2.3c-1.7-1.7-5-5.2-6.7-6.7c0.3-1.3,0.8-1.7,0.4-3.4 c-0.3-1.1-0.9-1.9-1.6-2.4c-4.3-3.1-9.2,2-6.3,6.1c0.5,0.7,1.2,1.3,2.3,1.6c1.6,0.5,2.1,0,3.3-0.3c0.5,0.4,1,1,1.5,1.5l4.4,4.4 c0.5,0.6,1.2,0.9,1.2,1.7c0.1,2.7,0.1,6.1,0,8.7c-1.3,0-2.6,0-3.9,0c-1.1,0-1.4-0.8-2.3-1.6l-15.6-15.8c-1.3-1.3-2.6-2.6-3.9-4 c-0.3-0.3-0.7-0.6-1-0.9c-1.7-1.8-1.7-1.4-4.4-1.4c-2.6,0-5.2,0-7.8,0c-0.4-0.2-0.3-0.3-0.5-0.7c-0.8-1.7-2.8-2.6-4.7-2.3 c-2,0.4-3.7,2.2-3.6,4.5c0.2,3.7,4.4,5.3,7.1,3.3c0.9-0.6,1.1-1.1,1.6-2.4c0.6-0.1,8.9-0.1,9.7,0c0.5,0.1,4.5,4.3,5,4.8l12.9,13.1 c0.5,0.6,3,2.8,3.2,3.3c-2.7,0.1-5.5,0-8.3,0c-1.8,0-1.4-0.1-2.7-1.5l-6.1-6.1c-1.3-1.4-2.6-2.9-4-4.1c2.5-4.8-3.2-8.8-6.8-5.6 c-2.3,2.1-1.6,6.5,1.8,7.4c1.7,0.5,2-0.1,3.3-0.2c0.7,1,1.8,1.9,2.7,2.8c0.9,1,1.6,1.7,2.7,2.7c1.9,1.7,3.6,3.7,5.4,5.5 c1.5,1.5,1,1.5,4,1.5c5.4,0,10.9-0.2,16.3,0l0,25.5l-1.2,0c-0.2-5.8,1.1-4.3-2.6-7.8c-1.1-1.1-4.4-4.2-5.2-5.2 c0.2-1.3,0.7-1.8,0.1-3.4c-0.4-1-1-1.7-1.8-2.2c-4.1-2.7-8.9,2.5-5.8,6.5c0.9,1.1,2.7,1.8,4.3,1.5c0.6-0.1,1-0.4,1.5-0.5 c1,0.7,3.5,3.5,4.5,4.5c3.1,3.1,2.5,1.7,2.4,6.6c-1.5,0.2-4.7,0-6.4,0H52.2C50.4,161.8,28,161.6,26.9,161.8z"/> <path class="st1" d="M141.4,89.8c2,0.1,4.7-2,5.6-2.9c1-1,3.4-3.4,3.9-4.7l-7-1.8L141.4,89.8z M138.9,89.3l2.5-9.6l-7.7-2 c0.1,2.3,0.7,5.1,1.4,7C135.9,86.5,137.3,88.8,138.9,89.3z M133.3,86.8c-0.1-0.4-1-2.4-1.5-4.5c-0.4-1.7-0.6-3.4-0.7-5.2 c-0.5-0.3-7.2-2-8.1-2.1c0.8,3,4.6,7.5,7.1,9.6C130.8,85.1,132.4,86.4,133.3,86.8z M120.7,64.2v0.5c0,2.2,0.4,5.3,1.1,7.2 c0.4,0.2,8.5,2.4,9.2,2.4c0.1-3.7,0.4-6,1-9.5c0.1-0.8,0.6-2.2,0.6-2.9L121.3,59C121,60.8,120.7,62.3,120.7,64.2z M133.6,75.1 l8.5,2.2l3.1-12c-1.2-0.4-9.5-2.6-10.1-2.6c-0.5,1.1-0.9,4.5-1.1,5.9C133.7,70.5,133.4,73,133.6,75.1z M144.4,77.9 c1.9,0.3,6.6,1.9,7.9,2c0.1-0.2,2-4,2.6-5.5c0.6-1.5,1.8-4.5,2.1-6.1c-1.8-0.4-8.5-2.4-9.5-2.4L144.4,77.9z M154.8,80.6 c1.7,0.4,9.5,2.6,10.5,2.6l2-2.3c1.7-2,4.2-6.3,4.6-8.8L159.5,69c-0.2,0.4-1.5,4.5-2.1,6.1l-1.9,4.2 C155.3,79.7,155,80.2,154.8,80.6z M160.2,66.5c0.3,0.2,11.9,3.2,12.5,3.2c0.4-2.1,0.7-4.4,0.5-6.7c-0.1-1.6-0.5-5-1.1-6.2 l-10.3-2.7c-0.3,4.2-0.2,5.3-1,9.5C160.6,64.5,160.2,65.7,160.2,66.5z M148.2,63.5l9.4,2.4c0.4-0.8,1-4.7,1.1-5.9 c0.3-2.1,0.4-4.4,0.4-6.5l-7.8-2.1L148.2,63.5z M135.7,60.2l10.1,2.6c0.4-1.4,3.1-11.4,3.1-12.1l-8.4-2.2 C139.2,50.7,135.9,57.9,135.7,60.2z M122,56.6c1.8,0.3,10.6,2.9,11.3,2.8c0.7-2.1,1.2-4,2.1-6l1.9-4.2c0.2-0.4,0.5-1,0.7-1.4 c-1.8-0.4-4-1-5.8-1.5c-3.2-0.8-3-1.2-4-0.1c-1,1-1.6,1.7-2.5,2.9C124.4,50.9,122.3,54.7,122,56.6z M131.2,43.6l8.1,2.1 c0.5-0.7,1-1.4,1.5-2.1c0.5-0.7,1.1-1.5,1.6-2c1-1,2.4-2.6,3.6-3.3c-3.9-0.2-9.8,1.9-13.2,4.2C132.3,42.8,131.5,43.1,131.2,43.6z M141.9,46.4l7.6,2c0.2-0.3,0.1-0.3,0.2-0.5l1.1-4.1c0.4-1.5,1-3.4,1.2-4.8c-2.8-0.1-4.7,1.6-6.1,2.8 C144.9,42.4,142.2,45.4,141.9,46.4z M152,49l7,1.8c-0.1-4.3-1.9-9.6-4.5-11.1C154.3,39.9,152.1,48.3,152,49z M161.6,51.5l9.3,2.4 c-1.4-3.8-4.8-7.8-8-10.2c-0.8-0.6-2.8-2-3.8-2.4c0.8,2,1,1.9,1.7,4.6C161.3,47.8,161.4,49.5,161.6,51.5z M146.3,90.6 c3.3,0.2,7-0.5,9.8-1.6c1.5-0.6,5.9-2.6,6.7-3.7l-9.3-2.5c-0.9,1.9-2.7,3.8-4.1,5.2C147.8,89.6,147,89.9,146.3,90.6z M148.5,35.7 h-3.2c0,0-4,0.5-6,1c-4.8,1.3-7.8,3.2-11.4,6.2c-0.7,0.6-1.1,1.1-1.8,1.8c-2.1,1.9-4.5,6-5.6,8.6c-7.9,18.6,5.9,39.9,26.6,39.9 c15.6,0,28.4-12.6,28.7-28c0.1-6.9-2.1-13.4-6.2-18.5c-0.3-0.3-0.5-0.6-0.8-1c-2-2.6-5.9-5.4-9-7c-1.5-0.8-3.4-1.5-5.1-2 c-1.1-0.3-1.8-0.5-3-0.7C151,36,148.9,35.9,148.5,35.7z"/> <rect x="26.9" y="220.6" class="st1" width="240.4" height="2.2"/> <path class="st1" d="M210.3,207.9l3.9,0c0-0.1-1.6-9.2-1.9-9.8c-0.1-0.3-0.1-0.2-0.2-0.3L210.3,207.9z M196.3,214.1l2.6,0l0-9.7 c4.4-0.3,3.7,0.8,3.8,6.1c0,1.5,0.4,2.9,1.6,3.4c0.9,0.3,3.7,0.2,4.8,0.2l0.7-3.9l4.7,0c0.4,0.1,0.7,3,0.9,4l2.7,0l-4.6-20.5 l-2.6,0l-4.2,19l-0.2-0.7c-1.7-0.4-1.2-1.4-1.2-4.8c0-2.2-0.4-3.1-2.1-3.8c1-0.9,1.7-1,1.7-3.4c0.1-3.4-0.4-3.5,1.2-4l0-2.3 c-3.2,0-3.9,0.8-3.9,4c0,3.6,0.4,4.8-3.4,4.6l0-8.5l-2.6,0L196.3,214.1z"/> <path class="st1" d="M84.3,195.5c-1.6,0.3-1.9,1.7-2,3.4c-0.1,1.4-0.1,9.6,0,10.8c0.2,1.7,1,2.8,2.9,2.5c1.6-0.3,1.8-1.7,1.9-3.4 c0.1-1.6,0.1-9.6,0-11C87,196.1,86.1,195.1,84.3,195.5 M83.9,193.3c-2.3,0.4-3.6,1.5-4.1,3.8c-0.4,2-0.2,5.5-0.2,7.7 c0,5.6-0.4,10.3,6.2,9.5c2.4-0.3,3.4-1.6,3.9-4c0.4-2.3,0.3-5.2,0.3-7.6c0-2.2,0.3-5.4-0.6-7.3C88.4,193.7,86.5,192.9,83.9,193.3z"/> <path class="st1" d="M164.2,195.4c-1.7,0.3-1.9,1.6-2,3.4c-0.1,1.5-0.1,9.7,0.1,11c0.2,1.8,1.1,2.7,3,2.4c1.5-0.3,1.8-1.9,1.9-3.5 c0.1-1.6,0.1-9.4,0-10.8C166.9,196.1,166.1,195.1,164.2,195.4 M163.6,193.3c-2.3,0.5-3.5,1.6-3.9,3.9c-0.4,2-0.2,5.5-0.2,7.7 c0,5.6-0.3,10.2,6.2,9.4c2.4-0.3,3.4-1.7,3.8-4c0.4-2.3,0.3-5.2,0.3-7.6c0-3.4,0.6-7.9-2.8-9.1 C166.2,193.2,164.6,193.1,163.6,193.3z"/> <path class="st1" d="M28.6,214.1l2.6,0c0.1-2.6-0.5-17-0.3-18.3c-0.1,0.2,2.7,16.5,3,18.3l3.3,0l2.3-13.5c0.2-1.1,0.5-3.6,0.8-4.5 l-0.3,18l2.4,0l0-20.5l-4,0c-0.3,1.1-0.5,3.2-0.7,4.4c-0.2,1.5-0.5,3.1-0.7,4.6c-0.2,1.4-1.1,8.2-1.5,9l-2.9-18l-3.9,0L28.6,214.1z "/> <path class="st1" d="M240.6,195.9c-1.5,0.3-1.5,2-1.5,3.5c0,2.7-0.1,7.8,0,10.2c0.1,1.8,0.5,2.8,2.5,2.5c1.6-0.2,1.5-2,1.5-3.6 c0-2.6,0.1-8,0-10.2C243,196.6,242.5,195.5,240.6,195.9 M240,193.6c-2.1,0.4-3.1,1.8-3.3,4.2c-0.2,2.3-0.1,5.1-0.1,7.5 c0,2.2-0.2,5.1,0.6,6.9c0.7,1.7,2.9,2.5,5.1,2.1c2.1-0.4,3-1.8,3.2-4.2c0.2-2.3,0.1-5.1,0.1-7.5c0-2,0.3-5.3-0.5-6.9 C244.2,194,242.4,193.1,240,193.6z"/> <path class="st1" d="M150.8,203.4c0.9,0.2,3.3,0.1,3.9-0.3c1-0.6,1-2.1,1-3.4c0-1.5,0-2.8-1-3.4c-0.8-0.4-2.8-0.5-3.8-0.4 L150.8,203.4z M148.1,214.1l2.6,0l0-8.4c5.4-0.1,7.7,0.4,7.4-7.3c-0.1-2-0.7-4-2.8-4.6c-1.2-0.3-5.7-0.2-7.2-0.2L148.1,214.1z"/> <path class="st1" d="M70.8,203.4c1,0.1,3.1,0.1,3.9-0.3c1.1-0.5,1-2,1-3.5c0-1.4,0-2.8-1-3.4c-0.8-0.4-2.8-0.5-3.8-0.4L70.8,203.4z M68.2,214.1l2.6,0l0-8.4c2.3-0.2,4.7,0.4,6.2-1.2c1.3-1.4,1.3-3.9,1.2-6.2c-0.1-1.2-0.2-2.1-0.7-2.9c-0.4-0.6-1.2-1.4-2.1-1.7 c-1.3-0.4-5.6-0.2-7.2-0.2L68.2,214.1z"/> <path class="st1" d="M183.9,214.1l2.6,0c0.1-2.7-0.3-1.4,0.7-3.8l3.9-8.5c0.1-0.1,0.1-0.2,0.2-0.4l0.3-0.4l0,13.1l2.6,0l0-20.5 l-2.6,0c-0.1,2.6,0.4,1.1-0.8,3.7l-4.3,9.2l0-12.8l-2.6,0L183.9,214.1z"/> <path class="st1" d="M44.4,214.1l2.6,0c0.1-2.6-0.4-1.4,0.7-3.8c0.7-1.6,4-8.9,4.3-9.4l0,13.1l2.6,0l0-20.5l-2.6,0 c-0.2,2.6,0.5,0.9-0.8,3.7c-0.5,1.1-0.9,2.1-1.4,3.1c-0.5,1-0.9,2.1-1.4,3.1l-1.4,3l0-13l-2.6,0L44.4,214.1z"/> <path class="st1" d="M102.3,211.8l0,2.2c1.3,0.2,3.4,0.1,4.1-1.4c1.1-2.2,0.3-13.5,0.6-16.8l3.8,0l0,18.3l2.6,0l0-20.5l-9.1,0 c-0.2,2,0,12.3,0,15.3C104.3,211.5,103.8,211.5,102.3,211.8"/> <polygon class="st1" points="171.8,214 174.4,214.1 174.4,204.6 179.1,204.5 179.2,214.1 181.8,214.1 181.8,193.6 179.2,193.5 179.2,202.2 174.4,202.3 174.4,193.6 171.8,193.6 "/> <path class="st1" d="M126.4,214.1l2.6,0l0-9.7c3.9-0.1,3.8,0.2,3.8,4.8c0,1.4-0.1,2.7,0.5,3.8c0.6,1.1,1.8,1.1,3.3,1.1l0-2.3 c-1.1-0.1-1.2-0.5-1.2-1.6c0-1,0-2,0-3.1c0-2.1-0.4-3.4-2.1-3.9c0.5-0.5,0.9-0.4,1.3-1.3c0.7-1.2,0.3-3.3,0.4-4.8 c0.1-1.1,0.3-1,1.2-1.3l0-2.3c-6-0.3-2.9,5-4.2,7.7c-0.5,1-1.8,0.9-3.1,0.9l0-8.5l-2.6,0L126.4,214.1z"/> <path class="st1" d="M56.8,214.1l2.6,0l0-9.7c3.7,0,3.8-0.1,3.8,4.8c0,3.6,0.1,5,3.9,4.9l0-2.3c-1.1-0.1-1.2-0.5-1.3-1.6 c0-3.2,0.6-6.1-2.1-7c0.7-0.7,1.7-0.6,1.7-3.5c0-0.8,0-1.8,0-2.6c0.1-1.1,0.3-1,1.2-1.3l0-2.3c-6-0.3-2.9,5-4.2,7.7 c-0.5,1.1-1.8,0.9-3.1,0.9l0-8.5l-2.6,0L56.8,214.1z"/> <path class="st1" d="M91.6,200l2.4,0c0.1-1.3-0.2-2.6,0.4-3.7c0.5-0.9,1.7-1.2,2.9-0.8c1.9,0.8,1.6,4.3,1.6,6.7l-5.1,0l0,2.2 c0.6,0.2,4.2,0.1,5.1,0.1c0.1,1.1,0,3.2,0,4.4c-0.1,1.6-0.2,2.6-1.4,3.1c-1.4,0.6-2.6,0-3.1-1c-0.6-1.2-0.2-2.8-0.4-4.1l-2.4,0 c-0.2,1.9,0,4.6,0.9,5.9c0.9,1.3,3,1.9,5.2,1.5c4.5-0.7,3.9-5.5,3.9-10c0-4.3,0.7-9.6-3.2-10.8c-2.2-0.6-3.9-0.4-5.4,0.8 C91.6,195.4,91.5,197.8,91.6,200"/> <polygon class="st1" points="115.5,214.1 125,214.1 125,211.8 118.2,211.8 118.2,204.3 123.9,204.3 124,202 118.2,202 118.2,195.9 124.8,195.9 124.8,193.6 115.6,193.5 "/> <path class="st1" d="M246.7,201.1l2.3,0c0-1.1-0.1-2.9,0.2-3.9c0.5-1.7,3.7-2.6,3.4,2.2c-0.1,1.4-0.4,2.2-0.9,3.2 c-0.5,0.9-5.1,8.7-5.2,9.4c-0.1,0.6,0,1.5,0,2.2l8.7,0l0-2.2l-6.1,0c0.1-0.4,3.2-5.6,3.6-6.3c1.2-2.1,2.5-4.6,2.2-7.7 c-0.3-3-2.1-5.1-5.5-4.3C246.4,194.4,246.6,197.8,246.7,201.1"/> <path class="st1" d="M227.5,201.1c0.6,0,1.8,0.1,2.3-0.1c0-1.5-0.4-4.6,1.1-5.1c2.3-0.7,2.6,1.8,2.4,3.7c-0.2,2.7-2.6,6-3.9,8.4 c-2.3,4.1-2.2,2.8-2.2,6.2l8.7,0l0-2.2l-6.1,0c0.2-0.6,1.4-2.5,1.8-3.2c2-3.4,4.5-6.8,4.1-11c-0.2-1.5-0.7-2.7-1.5-3.5 c-0.9-0.8-2.6-1.1-4-0.8C227.2,194.4,227.4,197.7,227.5,201.1"/> <path class="st1" d="M136.7,195.8l3.9,0.1l0,18.2l2.6,0l0-18.2l3.9,0c0.2-0.5,0.1-1.7,0.1-2.3l-10.5,0L136.7,195.8z"/> <g> <path class="st2" d="M258.4,209c0,0.1,0,0.3,0,0.4c0,0.1,0,0.3,0,0.4c0,0.4,0.1,0.9,0.3,1.3c0.2,0.4,0.5,0.7,1,0.9c0,0,0,0,0.1,0 c0,0,0.1,0,0.1,0c0,0,0.1,0,0.1,0c0,0,0.1,0,0.1,0c0.1,0,0.1,0,0.2,0c0.1,0,0.1,0,0.2,0c0.1,0,0.1,0,0.2,0c0.1,0,0.1,0,0.2,0 c0.3-0.1,0.6-0.2,0.9-0.4c0.3-0.2,0.5-0.4,0.6-0.7c0.1-0.3,0.2-0.7,0.3-1.1c0.1-0.4,0.1-0.9,0.1-1.3c0,0,0-0.1,0-0.1 c0,0,0-0.1,0-0.1c0-0.1,0-0.2,0-0.3c0-0.1,0-0.2,0-0.3c0-0.4-0.1-0.7-0.1-1c-0.1-0.3-0.1-0.6-0.2-0.8c-0.2-0.4-0.5-0.7-0.9-0.9 c-0.4-0.2-0.9-0.3-1.3-0.3c-0.2,0-0.3,0-0.5,0c-0.2,0-0.3,0-0.5,0h-0.3v-2.3c0,0,0.1,0,0.1,0c0.1,0,0.1,0,0.2,0c0,0,0,0,0.1,0 c0,0,0,0,0.1,0c0,0,0.1,0,0.1,0c0,0,0.1,0,0.1,0c0.1,0,0.2,0,0.3,0c0.1,0,0.2,0,0.3,0c0.4,0,0.8-0.1,1.2-0.3 c0.4-0.2,0.6-0.4,0.8-0.8c0.1-0.2,0.2-0.5,0.2-0.8c0.1-0.3,0.1-0.7,0.1-1c0-0.1,0-0.1,0-0.2c0-0.1,0-0.2,0-0.2c0-0.1,0-0.2,0-0.3 s0-0.2,0-0.3c0-0.2,0-0.4,0-0.6c0-0.2-0.1-0.4-0.1-0.6c0-0.1,0-0.1,0-0.2c0-0.1,0-0.1,0-0.1c-0.1-0.4-0.3-0.6-0.6-0.9 c-0.3-0.2-0.6-0.3-0.9-0.4c0,0,0,0-0.1,0c0,0,0,0-0.1,0h-0.3c-0.5,0.1-0.9,0.4-1.1,0.8c-0.2,0.4-0.3,0.9-0.4,1.4 c0,0.2,0,0.3,0,0.5c0,0.2,0,0.3,0,0.5c0,0,0,0.1,0,0.1c0,0.1,0,0.1,0,0.1h-2.3c0,0,0-0.1,0-0.1c0,0,0-0.1,0-0.1c0,0,0-0.1,0-0.1 c0,0,0-0.1,0-0.1c0-0.1,0-0.3,0-0.4c0-0.1,0-0.3,0-0.4c0-0.9,0.2-1.8,0.6-2.6c0.4-0.8,1.1-1.4,2.1-1.7c0.2-0.1,0.4-0.1,0.6-0.1 c0.2,0,0.4-0.1,0.6-0.1c0.1,0,0.2,0,0.2,0c0.1,0,0.1,0,0.2,0c0.1,0,0.2,0,0.3,0c0.1,0,0.2,0,0.3,0c0.5,0,0.9,0.1,1.3,0.3 c0.4,0.1,0.8,0.3,1.1,0.6c0.5,0.4,0.8,1,1.1,1.6c0.2,0.6,0.4,1.3,0.5,2c0,0.2,0,0.3,0,0.5c0,0.2,0,0.3,0,0.5c0,0.1,0,0.2,0,0.2 c0,0.1,0,0.2,0,0.2c0,0.2,0,0.3-0.1,0.5c0,0.2,0,0.3,0,0.5c0,0.1,0,0.2,0,0.2c0,0.1,0,0.1,0,0.2c-0.1,0.7-0.4,1.3-0.8,1.7 c-0.4,0.5-0.9,0.8-1.5,0.9c1,0.2,1.7,0.7,2.1,1.5c0.4,0.8,0.6,1.7,0.7,2.6c0,0.1,0,0.2,0,0.3c0,0.1,0,0.2,0,0.3c0,0.1,0,0.1,0,0.2 c0,0.1,0,0.1,0,0.1c0,0.2,0,0.3,0,0.5c0,0.2,0,0.3,0,0.5c0,0.1,0,0.3,0,0.4c0,0.1,0,0.3,0,0.4c-0.1,1.3-0.7,2.3-1.7,3 c-1,0.7-2.1,1.1-3.4,1.1c-0.1,0-0.3,0-0.5,0c-0.2,0-0.3,0-0.5,0c-0.1,0-0.2,0-0.2,0c-0.1,0-0.2,0-0.2,0c-1.1-0.3-1.9-0.8-2.2-1.7 c-0.4-0.9-0.6-1.8-0.6-2.8c0-0.2,0-0.3,0-0.5c0-0.1,0-0.3,0-0.4H258.4z"/> </g> </g> </svg>