<?xml version="1.0" encoding="UTF-8" standalone="no"?>
<!-- Uploaded to: SVG Repo, www.svgrepo.com, Generator: SVG Repo Mixer Tools -->

<svg
   width="800px"
   height="800px"
   viewBox="0 -15.5 100 100"
   version="1.1"
   id="svg5"
   sodipodi:docname="pc.svg"
   inkscape:version="1.3 (0e150ed6c4, 2023-07-21)"
   xmlns:inkscape="http://www.inkscape.org/namespaces/inkscape"
   xmlns:sodipodi="http://sodipodi.sourceforge.net/DTD/sodipodi-0.dtd"
   xmlns="http://www.w3.org/2000/svg"
   xmlns:svg="http://www.w3.org/2000/svg">
  <defs
     id="defs5" />
  <sodipodi:namedview
     id="namedview5"
     pagecolor="#ffffff"
     bordercolor="#000000"
     borderopacity="0.25"
     inkscape:showpageshadow="2"
     inkscape:pageopacity="0.0"
     inkscape:pagecheckerboard="0"
     inkscape:deskcolor="#d1d1d1"
     inkscape:zoom="0.98375"
     inkscape:cx="399.49174"
     inkscape:cy="400"
     inkscape:window-width="1920"
     inkscape:window-height="1001"
     inkscape:window-x="-9"
     inkscape:window-y="-9"
     inkscape:window-maximized="1"
     inkscape:current-layer="svg5" />
  <path
     fill="#23475F"
     d="M91 62V5a5 5 0 0 0-5-5H14a5 5 0 0 0-5 5v57H0v3a4 4 0 0 0 4 4h92a4 4 0 0 0 4-4v-3h-9z"
     id="path1" />
  <path
     fill="#3498DB"
     d="M14 5h72v51H14V5z"
     id="path2"
     style="fill:#659ad2;fill-opacity:1" />
  <path
     fill="#9ACCED"
     d="M58 19H43v4h15v-4zm-25 8v2h35v-2H33zm0 6h35v-2H33v2zm0 4h35v-2H33v2zm5 5.001h25V40H38v2.001z"
     id="path3"
     style="fill:#659ad2;fill-opacity:1" />
  <path
     fill="#1C394C"
     d="M9 60h82v2H9v-2z"
     id="path4" />
  <path
     fill="#BCC4C8"
     d="M74.5 64a1.5 1.5 0 1 0 .001 3.001A1.5 1.5 0 0 0 74.5 64zm5 0a1.5 1.5 0 1 0 .001 3.001A1.5 1.5 0 0 0 79.5 64zm5 0a1.5 1.5 0 1 0 .001 3.001A1.5 1.5 0 0 0 84.5 64z"
     id="path5"
     style="fill:#659ad2;fill-opacity:1" />
</svg>
