<?xml version="1.0" encoding="UTF-8" standalone="no"?>
<!-- Created with Inkscape (http://www.inkscape.org/) -->

<svg
   width="1920"
   height="1080"
   viewBox="0 0 1920 1080"
   version="1.1"
   id="svg1"
   inkscape:version="1.3 (0e150ed6c4, 2023-07-21)"
   sodipodi:docname="sim_based_verif_9.svg"
   xml:space="preserve"
   xmlns:inkscape="http://www.inkscape.org/namespaces/inkscape"
   xmlns:sodipodi="http://sodipodi.sourceforge.net/DTD/sodipodi-0.dtd"
   xmlns="http://www.w3.org/2000/svg"
   xmlns:svg="http://www.w3.org/2000/svg"><sodipodi:namedview
     id="namedview1"
     pagecolor="#ffffff"
     bordercolor="#000000"
     borderopacity="0.25"
     inkscape:showpageshadow="2"
     inkscape:pageopacity="0.0"
     inkscape:pagecheckerboard="0"
     inkscape:deskcolor="#d1d1d1"
     inkscape:document-units="px"
     inkscape:zoom="1.4142136"
     inkscape:cx="213.19269"
     inkscape:cy="190.56527"
     inkscape:window-width="1920"
     inkscape:window-height="1001"
     inkscape:window-x="-9"
     inkscape:window-y="-9"
     inkscape:window-maximized="1"
     inkscape:current-layer="layer1" /><defs
     id="defs1"><linearGradient
       id="swatch14"
       inkscape:swatch="solid"><stop
         style="stop-color:#ffffff;stop-opacity:1;"
         offset="0"
         id="stop14" /></linearGradient></defs><g
     inkscape:groupmode="layer"
     id="layer4"
     inkscape:label="Слой 4"><rect
       style="fill:#faff92;fill-opacity:1;stroke:#000000;stroke-width:5.01149;stroke-dasharray:none;stroke-opacity:1"
       id="rect2"
       width="765.57001"
       height="461.22687"
       x="133.26611"
       y="67.146667"
       ry="44.117352" /><path
       style="fill:#000000;fill-opacity:1;stroke:none;stroke-width:4.476;stroke-dasharray:none;stroke-opacity:1"
       d="m 582.65599,286.37825 133.64318,2.12132"
       id="path17" /><g
       style="fill:#727272;stroke:#727272;stroke-opacity:0.87843138;fill-opacity:0.87843138"
       id="g2"
       transform="matrix(1.4299592,0,0,1.3723002,591.32428,410.47025)"><path
         fill-rule="evenodd"
         clip-rule="evenodd"
         d="M 6.47,5.777 C 6.64843,5.66548 6.82631,5.57017 7.00005,5.48867 7.00341,5.24634 7.03488,5.00375 7.08016,4.76601 7.15702,4.36251 7.31232,3.81288 7.63176,3.25386 8.30808,2.0703 9.63768,1 12,1 c 2.3623,0 3.6919,1.0703 4.3682,2.25386 0.3195,0.55902 0.4748,1.10865 0.5516,1.51215 0.0453,0.23765 0.0768,0.48014 0.0801,0.72238 0.1738,0.0815 0.3517,0.17709 0.5301,0.28861 0.677,0.42312 1.3125,1.04882 1.7694,1.94227 C 19.7656,7.53233 20.2282,7.23 20.5429,6.7578 20.7966,6.3773 21,5.82502 21,5 c 0,-0.55228 0.4477,-1 1,-1 0.5523,0 1,0.44772 1,1 0,1.17498 -0.2966,2.1227 -0.7929,2.8672 -0.6395,0.95919 -1.5315,1.47724 -2.308,1.76405 C 19.9646,10.0513 20,10.5067 20,11 v 1 h 2 c 0.5523,0 1,0.4477 1,1 0,0.5523 -0.4477,1 -1,1 h -2 v 1.5191 c -0.0109,0.2858 -0.0502,0.5689 -0.0984,0.8506 0.7758,0.2869 1.6667,0.8049 2.3055,1.7631 C 22.7034,18.8773 23,19.825 23,21 c 0,0.5523 -0.4477,1 -1,1 -0.5523,0 -1,-0.4477 -1,-1 0,-0.825 -0.2034,-1.3773 -0.4571,-1.7578 -0.3028,-0.4543 -0.7411,-0.751 -1.1905,-0.9397 -0.1236,0.3043 -0.271,0.6188 -0.4471,0.9345 C 17.8448,21.1392 15.7816,23 12,23 8.2184,23 6.15524,21.1392 5.09465,19.237 4.91864,18.9213 4.77118,18.6068 4.6476,18.3025 4.19823,18.4912 3.75992,18.7879 3.45705,19.2422 3.20338,19.6227 3,20.175 3,21 3,21.5523 2.55228,22 2,22 1.44772,22 1,21.5523 1,21 1,19.825 1.29662,18.8773 1.79295,18.1328 2.43173,17.1746 3.32255,16.6566 4.09839,16.3697 4.05024,16.0885 4.0127,15.8043 4,15.5191 V 14 H 2 C 1.44772,14 1,13.5523 1,13 1,12.4477 1.44772,12 2,12 H 4 V 11 C 4,10.5067 4.0354,10.0513 4.10086,9.63125 3.3244,9.34444 2.43241,8.82639 1.79295,7.8672 1.29662,7.1227 1,6.17498 1,5 1,4.44772 1.44772,4 2,4 2.55228,4 3,4.44772 3,5 3,5.82502 3.20338,6.3773 3.45705,6.7578 3.77185,7.23 4.2344,7.53233 4.70063,7.71927 5.15748,6.82582 5.79302,6.20012 6.47,5.777 Z M 14.6318,4.24614 C 14.7804,4.50632 14.8709,4.77287 14.9251,5 H 9.07491 C 9.1291,4.77287 9.21957,4.50632 9.36824,4.24614 9.69192,3.6797 10.3623,3 12,3 c 1.6377,0 2.3081,0.6797 2.6318,1.24614 z M 8.99671,7.00035 C 8.48495,7.02168 7.96106,7.20358 7.53,7.473 6.84294,7.90241 6,8.81983 6,11 v 4.4738 C 6.06537,16.4404 6.37182,17.4207 6.84149,18.263 7.5032,19.4498 8.69637,20.6688 11,20.943 V 7 Z M 13,7 v 13.943 c 2.3036,-0.2742 3.4968,-1.4932 4.1585,-2.68 C 17.6282,17.4206 17.9346,16.4404 18,15.4738 V 11 C 18,8.81983 17.1571,7.90241 16.47,7.473 16.0389,7.20358 15.515,7.02168 15.0033,7.00035 Z"
         fill="#0f0f0f"
         id="path1"
         style="stroke:#727272;stroke-opacity:0.87843138;fill:#727272;fill-opacity:0.87843138" /></g></g><g
     inkscape:groupmode="layer"
     id="layer3"
     inkscape:label="Слой 3"><path
       style="fill:#000000;fill-opacity:1;stroke:none;stroke-width:4.676;stroke-dasharray:none;stroke-opacity:1"
       d="m 584.77731,286.02469 133.64318,3.53554"
       id="path18" /></g><g
     inkscape:groupmode="layer"
     id="layer2"
     inkscape:label="Слой 2" /><g
     inkscape:label="Слой 1"
     inkscape:groupmode="layer"
     id="layer1"><ellipse
       style="fill:#77e078;fill-opacity:1;stroke:#727272;stroke-width:5;stroke-dasharray:none;stroke-opacity:0.87843138"
       id="path2-5-3"
       ry="16.307238"
       rx="16.22122"
       cy="447.53705"
       cx="301.78546" /><ellipse
       style="fill:#9c9c9c;fill-opacity:1;stroke:#000000;stroke-width:5;stroke-dasharray:none;stroke-opacity:1"
       id="path2-5"
       ry="16.307238"
       rx="16.22122"
       cy="370.48859"
       cx="227.24438" /><ellipse
       style="fill:#8bfb8c;fill-opacity:1;stroke:#727272;stroke-width:5;stroke-dasharray:none;stroke-opacity:0.87843138"
       id="path2-7"
       ry="16.307238"
       rx="16.22122"
       cy="372.63666"
       cx="373.64819" /><ellipse
       style="fill:#9c9c9c;fill-opacity:1;stroke:#000000;stroke-width:5;stroke-dasharray:none;stroke-opacity:1"
       id="path2-01"
       ry="16.307238"
       rx="16.22122"
       cy="284.39435"
       cx="301.50549" /><ellipse
       style="fill:#76e177;fill-opacity:0.78014183;stroke:#727272;stroke-width:5;stroke-dasharray:none;stroke-opacity:0.87843138"
       id="path2-4"
       ry="16.307238"
       rx="16.22122"
       cy="208.35669"
       cx="226.54321" /><ellipse
       style="fill:#80d781;fill-opacity:0.79432625;stroke:#727272;stroke-width:5;stroke-dasharray:none;stroke-opacity:0.87843138"
       id="path2-0"
       ry="16.307238"
       rx="16.22122"
       cy="208.39972"
       cx="373.15967" /><ellipse
       style="fill:#d86060;fill-opacity:1;stroke:#000000;stroke-width:5;stroke-dasharray:none;stroke-opacity:1"
       id="path2"
       ry="16.307238"
       rx="16.22122"
       cy="136.72783"
       cx="298.18359" /><ellipse
       style="fill:#d86060;fill-opacity:1;stroke:#727272;stroke-width:5;stroke-dasharray:none;stroke-opacity:0.87843138"
       id="path2-5-3-4"
       ry="16.307238"
       rx="16.22122"
       cy="448.61395"
       cx="567.31836" /><ellipse
       style="fill:#9c9c9c;fill-opacity:1;stroke:#000000;stroke-width:5;stroke-dasharray:none;stroke-opacity:1"
       id="path2-5-9"
       ry="16.307238"
       rx="16.22122"
       cy="371.56549"
       cx="492.7774" /><ellipse
       style="fill:#9c9c9c;fill-opacity:1;stroke:#000000;stroke-width:5;stroke-dasharray:none;stroke-opacity:1"
       id="path2-7-4"
       ry="16.307238"
       rx="16.22122"
       cy="373.71356"
       cx="639.18127" /><ellipse
       style="fill:#9c9c9c;fill-opacity:1;stroke:#000000;stroke-width:5;stroke-dasharray:none;stroke-opacity:1"
       id="path2-01-6"
       ry="16.307238"
       rx="16.22122"
       cy="285.47125"
       cx="567.03845" /><ellipse
       style="fill:#9c9c9c;fill-opacity:1;stroke:#000000;stroke-width:5;stroke-dasharray:none;stroke-opacity:1"
       id="path2-4-3"
       ry="16.307238"
       rx="16.22122"
       cy="209.43365"
       cx="492.07623" /><ellipse
       style="fill:#d86060;fill-opacity:1;stroke:#000000;stroke-width:5;stroke-dasharray:none;stroke-opacity:1"
       id="path2-0-1"
       ry="16.307238"
       rx="16.22122"
       cy="209.47668"
       cx="638.69275" /><ellipse
       style="fill:#d86060;fill-opacity:1;stroke:#000000;stroke-width:5;stroke-dasharray:none;stroke-opacity:1"
       id="path2-48"
       ry="16.307238"
       rx="16.22122"
       cy="137.80481"
       cx="563.71655" /><ellipse
       style="fill:#9c9c9c;fill-opacity:1;stroke:#000000;stroke-width:5;stroke-dasharray:none;stroke-opacity:1"
       id="path2-7-4-5"
       ry="16.307238"
       rx="16.22122"
       cy="377.91785"
       cx="806.06555" /><ellipse
       style="fill:#9c9c9c;fill-opacity:1;stroke:#000000;stroke-width:5;stroke-dasharray:none;stroke-opacity:1"
       id="path2-01-6-7"
       ry="16.307238"
       rx="16.22122"
       cy="289.67554"
       cx="733.92285" /><ellipse
       style="fill:#9c9c9c;fill-opacity:1;stroke:#000000;stroke-width:5;stroke-dasharray:none;stroke-opacity:1"
       id="path2-0-1-3"
       ry="16.307238"
       rx="16.22122"
       cy="213.68097"
       cx="805.57703" /><path
       style="fill:#5dfa5f;fill-opacity:1;stroke:#000000;stroke-width:5;stroke-dasharray:none;stroke-opacity:1"
       d="m 57.06066,230.88388 c 3.5,0 78,0 78,0"
       id="path16" /><path
       style="fill:#5dfa5f;fill-opacity:1;stroke:#000000;stroke-width:5;stroke-dasharray:none;stroke-opacity:1"
       d="m 57.56676,334.62652 c 3.5,0 78,0 78,0"
       id="path16-6" /><path
       style="fill:#5dfa5f;fill-opacity:1;stroke:#000000;stroke-width:5;stroke-dasharray:none;stroke-opacity:1"
       d="m 57.25,281 c 3.5,0 78,0 78,0"
       id="path16-5" /><path
       style="fill:#5dfa5f;fill-opacity:1;stroke:#000000;stroke-width:5;stroke-dasharray:none;stroke-opacity:1"
       d="m 57.06066,184.96447 c 3.5,0 78,0 78,0"
       id="path16-8" /><path
       style="fill:#5dfa5f;fill-opacity:1;stroke:#000000;stroke-width:5;stroke-dasharray:none;stroke-opacity:1"
       d="m 57.39339,385.15685 c 3.5,0 78,0 78,0"
       id="path16-1" /><path
       style="fill:#000000;fill-opacity:1;stroke:#000000;stroke-width:3.276;stroke-dasharray:none;stroke-opacity:0.38431373"
       d="m 313.95433,433.10879 35.59056,-36.1721"
       id="path19-4-0-3"
       sodipodi:nodetypes="cc" /><path
       style="fill:#000000;fill-opacity:1;stroke:#000000;stroke-width:3.276;stroke-dasharray:none;stroke-opacity:0.38431373"
       d="m 389.48367,378.41487 142.26902,61.73706"
       id="path19-4-0-3-0"
       sodipodi:nodetypes="cc" /><path
       style="fill:#000000;fill-opacity:1;stroke:#000000;stroke-width:3.276;stroke-dasharray:none;stroke-opacity:0.38431373"
       d="m 239.01479,381.78187 42.52059,38.02297"
       id="path19-4-0-3-6"
       sodipodi:nodetypes="cc" /><path
       style="fill:#000000;fill-opacity:1;stroke:#000000;stroke-width:3.276;stroke-dasharray:none;stroke-opacity:0.384314"
       d="m 133.74483,384.75289 60.16704,-7.65641"
       id="path19-4-0-3-6-1"
       sodipodi:nodetypes="cc" /><path
       sodipodi:type="star"
       style="fill:#000000;fill-opacity:0.38431373;stroke:#000000;stroke-width:3.276;stroke-opacity:0.38431373"
       id="path1-7-9-0-2-3-3"
       inkscape:flatsided="true"
       sodipodi:sides="3"
       sodipodi:cx="777.375"
       sodipodi:cy="237.125"
       sodipodi:r1="9.9468848"
       sodipodi:r2="5.6138778"
       sodipodi:arg1="-1.6419611"
       sodipodi:arg2="-0.5947636"
       inkscape:rounded="0"
       inkscape:randomized="0"
       d="m 776.66773,227.20329 9.65336,14.27005 -17.18491,1.22503 z"
       inkscape:transform-center-x="1.125"
       inkscape:transform-center-y="1.7757214"
       transform="translate(-240.79731,205.19949)" /><path
       sodipodi:type="star"
       style="fill:#000000;fill-opacity:0.38431373;stroke:#000000;stroke-width:3.276;stroke-opacity:0.38431373"
       id="path1-7-9-0-2-3-3-9"
       inkscape:flatsided="true"
       sodipodi:sides="3"
       sodipodi:cx="777.375"
       sodipodi:cy="237.125"
       sodipodi:r1="8.419282"
       sodipodi:r2="5.6138778"
       sodipodi:arg1="-2.9207764"
       sodipodi:arg2="-1.8735789"
       inkscape:rounded="0"
       inkscape:randomized="0"
       d="m 769.16015,235.28096 13.91926,-4.34821 -3.19397,14.22854 z"
       inkscape:transform-center-x="1.125"
       inkscape:transform-center-y="1.7757214"
       transform="translate(-424.68066,156.44327)" /><path
       sodipodi:type="star"
       style="fill:#000000;fill-opacity:0.38431373;stroke:#000000;stroke-width:3.276;stroke-opacity:0.38431373"
       id="path1-7-9-0-2-3-3-9-2"
       inkscape:flatsided="true"
       sodipodi:sides="3"
       sodipodi:cx="777.375"
       sodipodi:cy="237.125"
       sodipodi:r1="8.7842426"
       sodipodi:r2="5.6138778"
       sodipodi:arg1="-1.3019635"
       sodipodi:arg2="-0.25476598"
       inkscape:rounded="0"
       inkscape:randomized="0"
       d="m 779.70815,228.65627 3.83441,14.72366 -14.66827,-4.04113 z"
       inkscape:transform-center-x="1.125"
       inkscape:transform-center-y="1.7757214"
       transform="translate(-492.74807,185.95228)" /><path
       sodipodi:type="star"
       style="fill:#000000;fill-opacity:0.38431373;stroke:#000000;stroke-width:3.276;stroke-opacity:0.38431373"
       id="path1-7-9-0-2-3-3-9-2-2"
       inkscape:flatsided="true"
       sodipodi:sides="3"
       sodipodi:cx="777.375"
       sodipodi:cy="237.125"
       sodipodi:r1="7.417767"
       sodipodi:r2="5.6138778"
       sodipodi:arg1="-2.1802959"
       sodipodi:arg2="-1.1330984"
       inkscape:rounded="0"
       inkscape:randomized="0"
       d="m 773.12865,231.04292 11.63677,5.44567 -10.53448,7.3549 z"
       inkscape:transform-center-x="1.125"
       inkscape:transform-center-y="1.7757214"
       transform="translate(-578.78782,138.84977)" /><path
       style="fill:#000000;fill-opacity:0.38431373;stroke:#000000;stroke-width:3.276;stroke-dasharray:none;stroke-opacity:0.38431373"
       d="M 135.70677,229.04631 194.47866,212.6399"
       id="path19-4-0-3-6-1-2"
       sodipodi:nodetypes="cc" /><path
       sodipodi:type="star"
       style="fill:#000000;fill-opacity:0.38431373;stroke:#000000;stroke-width:3.276;stroke-opacity:0.38431373"
       id="path1-7-9-0-2-3-3-9-2-2-6"
       inkscape:flatsided="true"
       sodipodi:sides="3"
       sodipodi:cx="777.375"
       sodipodi:cy="237.125"
       sodipodi:r1="7.485819"
       sodipodi:r2="5.6138778"
       sodipodi:arg1="-2.3953363"
       sodipodi:arg2="-1.3481388"
       inkscape:rounded="0"
       inkscape:randomized="0"
       d="m 771.87865,232.04292 12.64574,2.86314 -8.80243,9.51996 z"
       inkscape:transform-center-x="1.125"
       inkscape:transform-center-y="1.7757214"
       transform="translate(-578.07588,-25.85681)" /><path
       style="fill:#000000;fill-opacity:0.38431373;stroke:#000000;stroke-width:3.276;stroke-dasharray:none;stroke-opacity:0.38431373"
       d="m 243.69042,208.58426 97.77189,0.84359"
       id="path19-4-0-3-6-1-2-3"
       sodipodi:nodetypes="cc" /><path
       sodipodi:type="star"
       style="fill:#000000;fill-opacity:0.38431373;stroke:#000000;stroke-width:3.276;stroke-opacity:0.38431373"
       id="path1-7-9-0-2-3-3-9-2-2-6-5"
       inkscape:flatsided="true"
       sodipodi:sides="3"
       sodipodi:cx="777.375"
       sodipodi:cy="237.125"
       sodipodi:r1="7.7918248"
       sodipodi:r2="5.6138778"
       sodipodi:arg1="-2.0723698"
       sodipodi:arg2="-1.0251723"
       inkscape:rounded="0"
       inkscape:randomized="0"
       d="m 773.62865,230.29292 11.53628,7.00368 -11.83351,6.48888 z"
       inkscape:transform-center-x="1.125"
       inkscape:transform-center-y="1.7757214"
       transform="translate(-431.84223,-27.81886)" /><path
       sodipodi:type="star"
       style="fill:#000000;fill-opacity:0.38297874;stroke:#000000;stroke-width:3.276;stroke-opacity:0.38431373"
       id="path1-7"
       inkscape:flatsided="true"
       sodipodi:sides="3"
       sodipodi:cx="777.375"
       sodipodi:cy="237.125"
       sodipodi:r1="8.0630074"
       sodipodi:r2="5.6138778"
       sodipodi:arg1="1.2347899"
       sodipodi:arg2="2.2819874"
       inkscape:rounded="0"
       inkscape:randomized="0"
       d="m 780.03353,244.73712 -10.58008,-9.11582 13.18457,-4.60471 z"
       inkscape:transform-center-x="1.125"
       inkscape:transform-center-y="1.7757214"
       transform="translate(-492.38142,69.793323)" /><path
       sodipodi:type="star"
       style="fill:#000000;fill-opacity:0.38297874;stroke:#000000;stroke-width:3.276;stroke-opacity:0.38431373"
       id="path1-7-9"
       inkscape:flatsided="true"
       sodipodi:sides="3"
       sodipodi:cx="777.375"
       sodipodi:cy="237.125"
       sodipodi:r1="10.757956"
       sodipodi:r2="5.6138778"
       sodipodi:arg1="1.6899641"
       sodipodi:arg2="2.7371616"
       inkscape:rounded="0"
       inkscape:randomized="0"
       d="m 776.09603,247.80666 -7.33213,-17.13011 18.50117,2.21524 z"
       inkscape:transform-center-x="1.125"
       inkscape:transform-center-y="1.7757214"
       transform="translate(-313.49796,-16.332417)" /><path
       sodipodi:type="star"
       style="fill:#000000;fill-opacity:0.38297874;stroke:#000000;stroke-width:3.276;stroke-opacity:0.38431373"
       id="path1-7-9-0-41"
       inkscape:flatsided="true"
       sodipodi:sides="3"
       sodipodi:cx="777.375"
       sodipodi:cy="237.125"
       sodipodi:r1="10.73989"
       sodipodi:r2="5.6138778"
       sodipodi:arg1="3.0107825"
       sodipodi:arg2="4.05798"
       inkscape:rounded="0"
       inkscape:randomized="0"
       d="m 766.72687,238.52588 14.759,-11.32288 2.4264,18.44311 z"
       inkscape:transform-center-x="1.125"
       inkscape:transform-center-y="1.7757214"
       transform="translate(-232.61989,25.387693)" /><path
       sodipodi:type="star"
       style="fill:#000000;fill-opacity:0.38297874;stroke:#000000;stroke-width:3.276;stroke-opacity:0.38431373"
       id="path1-7-9-0-4"
       inkscape:flatsided="true"
       sodipodi:sides="3"
       sodipodi:cx="777.375"
       sodipodi:cy="237.125"
       sodipodi:r1="9.3830729"
       sodipodi:r2="5.6138778"
       sodipodi:arg1="2.0890621"
       sodipodi:arg2="3.1362596"
       inkscape:rounded="0"
       inkscape:randomized="0"
       d="m 772.72687,245.27588 -0.0867,-16.25172 14.11775,8.0508 z"
       inkscape:transform-center-x="1.125"
       inkscape:transform-center-y="1.7757214"
       transform="translate(-73.974063,51.647213)" /><path
       sodipodi:type="star"
       style="fill:#000000;fill-opacity:0.38297874;stroke:#000000;stroke-width:3.276;stroke-opacity:0.38431373"
       id="path1-7-9-0-4-0"
       inkscape:flatsided="true"
       sodipodi:sides="3"
       sodipodi:cx="777.375"
       sodipodi:cy="237.125"
       sodipodi:r1="8.8657532"
       sodipodi:r2="5.6138778"
       sodipodi:arg1="1.2206036"
       sodipodi:arg2="2.2678011"
       inkscape:rounded="0"
       inkscape:randomized="0"
       d="m 780.41665,245.45266 -11.77444,-9.85734 14.42393,-5.2683 z"
       inkscape:transform-center-x="1.125"
       inkscape:transform-center-y="1.7757214"
       transform="translate(6.6041973,-2.054477)" /><path
       style="fill:#000000;fill-opacity:0.38297874;stroke:#000000;stroke-width:3.276;stroke-dasharray:none;stroke-opacity:0.38431373"
       d="m 745.73243,277.38866 34.14929,-37.95711"
       id="path19-4-0-8"
       sodipodi:nodetypes="cc" /><ellipse
       style="fill:#5dfa5f;fill-opacity:0.503546;stroke:#727272;stroke-width:5;stroke-dasharray:none;stroke-opacity:0.878431"
       id="path2-5-8"
       ry="16.307238"
       rx="16.22122"
       cy="370.43539"
       cx="227.20439" /><ellipse
       style="fill:#5dfa5f;fill-opacity:0.50354612;stroke:#727272;stroke-width:5;stroke-dasharray:none;stroke-opacity:0.8768627"
       id="path2-01-69"
       ry="16.307238"
       rx="16.22122"
       cy="284.59113"
       cx="301.21548" /><ellipse
       style="fill:#5dfa5f;fill-opacity:0.50354612;stroke:#727272;stroke-width:5;stroke-dasharray:none;stroke-opacity:0.8768627"
       id="path2-01-6-9"
       ry="16.307238"
       rx="16.22122"
       cy="285.66803"
       cx="566.74847" /><ellipse
       style="fill:#5dfa5f;fill-opacity:0.50354612;stroke:#727272;stroke-width:5;stroke-dasharray:none;stroke-opacity:0.8768627"
       id="path2-4-3-8"
       ry="16.307238"
       rx="16.22122"
       cy="209.63045"
       cx="491.78622" /><ellipse
       style="fill:#5dfa5f;fill-opacity:0.50354612;stroke:#727272;stroke-width:5;stroke-dasharray:none;stroke-opacity:0.8768627"
       id="path2-01-6-7-9"
       ry="16.307238"
       rx="16.22122"
       cy="289.87231"
       cx="733.63281" /><ellipse
       style="fill:#5dfa5f;fill-opacity:0.50354612;stroke:#727272;stroke-width:5;stroke-dasharray:none;stroke-opacity:0.87843138"
       id="path2-0-1-3-1"
       ry="16.307238"
       rx="16.22122"
       cy="213.87776"
       cx="805.28699" /><path
       style="fill:#000000;fill-opacity:0.38297874;stroke:#000000;stroke-width:3.276;stroke-dasharray:none;stroke-opacity:0.38431373"
       d="M 584.89471,287.08128 697.544,288.62417"
       id="path19-4-0-4"
       sodipodi:nodetypes="cc" /><path
       style="fill:#000000;fill-opacity:0.38297874;stroke:#000000;stroke-width:3.276;stroke-dasharray:none;stroke-opacity:0.38431373"
       d="m 236.92051,356.27213 44.81348,-46.65901"
       id="path19-4-0-3-6-1-9"
       sodipodi:nodetypes="cc" /><path
       style="fill:#000000;fill-opacity:0.38297874;stroke:#000000;stroke-width:3.276;stroke-dasharray:none;stroke-opacity:0.38431373"
       d="M 317.38988,278.13129 459.85165,223.00077"
       id="path19-4-0-3-6-1-9-4"
       sodipodi:nodetypes="cc" /><path
       style="fill:#000000;fill-opacity:0.38297874;stroke:#000000;stroke-width:3.276;stroke-dasharray:none;stroke-opacity:0.38431373"
       d="m 504.30156,220.21844 36.39927,38.93198"
       id="path19-4-0-3-6-1-9-4-6"
       sodipodi:nodetypes="cc" /><text
       xml:space="preserve"
       style="font-size:26.6667px;fill:#727272;fill-opacity:0.87843138;stroke:#727272;stroke-width:1;stroke-dasharray:none;stroke-opacity:0.87843138"
       x="30.395828"
       y="238.88803"
       id="text2-2"><tspan
         sodipodi:role="line"
         id="tspan2-0"
         x="30.395828"
         y="238.88803"
         style="fill:#727272;fill-opacity:0.87843138;stroke:#727272;stroke-opacity:0.87843138">D</tspan></text></g></svg>
