<?xml version="1.0" encoding="UTF-8" standalone="no"?>
<!-- Created with Inkscape (http://www.inkscape.org/) -->

<svg
   width="480mm"
   height="320mm"
   viewBox="0 0 1814.1732 1209.4489"
   version="1.1"
   id="svg1"
   sodipodi:docname="sim_vs_formal.svg"
   inkscape:version="1.3 (0e150ed6c4, 2023-07-21)"
   xmlns:inkscape="http://www.inkscape.org/namespaces/inkscape"
   xmlns:sodipodi="http://sodipodi.sourceforge.net/DTD/sodipodi-0.dtd"
   xmlns="http://www.w3.org/2000/svg"
   xmlns:svg="http://www.w3.org/2000/svg">
  <sodipodi:namedview
     id="namedview1"
     pagecolor="#ffffff"
     bordercolor="#000000"
     borderopacity="0.25"
     inkscape:showpageshadow="2"
     inkscape:pageopacity="0.0"
     inkscape:pagecheckerboard="0"
     inkscape:deskcolor="#d1d1d1"
     inkscape:document-units="mm"
     showgrid="true"
     inkscape:zoom="0.70710678"
     inkscape:cx="855.5992"
     inkscape:cy="669.63012"
     inkscape:window-width="1920"
     inkscape:window-height="1001"
     inkscape:window-x="-9"
     inkscape:window-y="-9"
     inkscape:window-maximized="1"
     inkscape:current-layer="layer1" />
  <defs
     id="defs1">
    <inkscape:path-effect
       effect="sketch"
       id="path-effect28"
       is_visible="true"
       lpeversion="1"
       nbiter_approxstrokes="3"
       parallel_offset="1;1"
       strokelength="100"
       strokelength_rdm="0.3;1"
       strokeoverlap="0"
       strokeoverlap_rdm="0.3;1"
       ends_tolerance="0.1;1"
       tremble_size="5;1"
       tremble_frequency="1"
       nbtangents="5"
       tgt_places_rdmness="1;1"
       tgtlength="18.75"
       tgtlength_rdm="0.3;1"
       tgtscale="10" />
    <inkscape:path-effect
       effect="sketch"
       id="path-effect27"
       is_visible="true"
       lpeversion="1"
       nbiter_approxstrokes="3"
       parallel_offset="1;1"
       strokelength="100"
       strokelength_rdm="0.3;1"
       strokeoverlap="0"
       strokeoverlap_rdm="0.3;1"
       ends_tolerance="0.1;1"
       tremble_size="5;1"
       tremble_frequency="1"
       nbtangents="5"
       tgt_places_rdmness="1;1"
       tgtlength="16.40625"
       tgtlength_rdm="0.3;1"
       tgtscale="10" />
    <inkscape:path-effect
       effect="sketch"
       id="path-effect26"
       is_visible="true"
       lpeversion="1"
       nbiter_approxstrokes="3"
       parallel_offset="1;1"
       strokelength="100"
       strokelength_rdm="0.3;1"
       strokeoverlap="0.12890625"
       strokeoverlap_rdm="0.3;1"
       ends_tolerance="0.1;1"
       tremble_size="5;1"
       tremble_frequency="1"
       nbtangents="5"
       tgt_places_rdmness="1;1"
       tgtlength="16.40625"
       tgtlength_rdm="0.3;1"
       tgtscale="10" />
    <inkscape:path-effect
       effect="sketch"
       id="path-effect21"
       is_visible="true"
       lpeversion="1"
       nbiter_approxstrokes="1"
       parallel_offset="1;1"
       strokelength="82.734375"
       strokelength_rdm="0.3;1"
       strokeoverlap="0"
       strokeoverlap_rdm="0.3;1"
       ends_tolerance="0.1;1"
       tremble_size="1;1"
       tremble_frequency="0.01"
       nbtangents="5"
       tgt_places_rdmness="1;1"
       tgtlength="0"
       tgtlength_rdm="0.3;1"
       tgtscale="10" />
    <inkscape:path-effect
       effect="sketch"
       id="path-effect20"
       is_visible="true"
       lpeversion="1"
       nbiter_approxstrokes="1"
       parallel_offset="1;1"
       strokelength="82.734375"
       strokelength_rdm="0.2;1"
       strokeoverlap="0"
       strokeoverlap_rdm="0;1"
       ends_tolerance="0;1"
       tremble_size="0.9;1"
       tremble_frequency="0.01"
       nbtangents="0"
       tgt_places_rdmness="0.2;1"
       tgtlength="0"
       tgtlength_rdm="0.3;1"
       tgtscale="10" />
    <inkscape:path-effect
       effect="sketch"
       id="path-effect19"
       is_visible="true"
       lpeversion="1"
       nbiter_approxstrokes="7"
       parallel_offset="1;1"
       strokelength="100"
       strokelength_rdm="0.3;1"
       strokeoverlap="0.3"
       strokeoverlap_rdm="0.3;1"
       ends_tolerance="0.1;1"
       tremble_size="2;1"
       tremble_frequency="1"
       nbtangents="5"
       tgt_places_rdmness="1;1"
       tgtlength="15.234375"
       tgtlength_rdm="0.3;1"
       tgtscale="10" />
    <inkscape:path-effect
       effect="sketch"
       id="path-effect10"
       is_visible="true"
       lpeversion="1"
       nbiter_approxstrokes="7"
       parallel_offset="1;1"
       strokelength="90.507812"
       strokelength_rdm="0.3;1"
       strokeoverlap="0.23046875"
       strokeoverlap_rdm="0.3;1"
       ends_tolerance="0.1;1"
       tremble_size="2;1"
       tremble_frequency="1"
       nbtangents="5"
       tgt_places_rdmness="1;1"
       tgtlength="0"
       tgtlength_rdm="0.3;1"
       tgtscale="10" />
    <inkscape:path-effect
       effect="sketch"
       id="path-effect9"
       is_visible="true"
       lpeversion="1"
       nbiter_approxstrokes="3"
       parallel_offset="1;1"
       strokelength="100"
       strokelength_rdm="0.3;1"
       strokeoverlap="0.1328125"
       strokeoverlap_rdm="0.3;1"
       ends_tolerance="0.1;1"
       tremble_size="3;1"
       tremble_frequency="1"
       nbtangents="5"
       tgt_places_rdmness="1;1"
       tgtlength="16.40625"
       tgtlength_rdm="0.3;1"
       tgtscale="10" />
    <inkscape:path-effect
       effect="sketch"
       id="path-effect8"
       is_visible="true"
       lpeversion="1"
       nbiter_approxstrokes="3"
       parallel_offset="1;1"
       strokelength="100"
       strokelength_rdm="0.3;1"
       strokeoverlap="0.12890625"
       strokeoverlap_rdm="0.3;1"
       ends_tolerance="0.1;1"
       tremble_size="2;1"
       tremble_frequency="1"
       nbtangents="5"
       tgt_places_rdmness="1;1"
       tgtlength="16.40625"
       tgtlength_rdm="0.3;1"
       tgtscale="10" />
    <inkscape:path-effect
       effect="sketch"
       id="path-effect7"
       is_visible="true"
       lpeversion="1"
       nbiter_approxstrokes="3"
       parallel_offset="1;1"
       strokelength="94.394531"
       strokelength_rdm="0.3;1"
       strokeoverlap="0.1328125"
       strokeoverlap_rdm="0.3;1"
       ends_tolerance="0.1;1"
       tremble_size="3;1"
       tremble_frequency="0.01"
       nbtangents="5"
       tgt_places_rdmness="1;1"
       tgtlength="16.40625"
       tgtlength_rdm="0.3;1"
       tgtscale="10" />
    <inkscape:path-effect
       effect="spiro"
       id="path-effect6"
       is_visible="true"
       lpeversion="1" />
    <inkscape:path-effect
       effect="vonkoch"
       id="path-effect5"
       is_visible="true"
       lpeversion="1"
       ref_path="M 331.80123,427.10583 H 990.3611"
       generator="m 331.80123,722.09629 h 219.51996 m 219.51995,0 H 990.3611"
       similar_only="false"
       nbgenerations="1"
       drawall="true"
       maxComplexity="1000" />
    <inkscape:path-effect
       effect="show_handles"
       id="path-effect18"
       is_visible="true"
       lpeversion="1"
       nodes="true"
       handles="true"
       original_path="true"
       show_center_node="false"
       original_d="false"
       scale_nodes_and_handles="10" />
    <inkscape:path-effect
       effect="rough_hatches"
       id="path-effect17"
       is_visible="true"
       lpeversion="1.2"
       direction="661.08116,422.10583 , 164.63997,0"
       dist_rdm="75;1"
       growth="0"
       do_bend="true"
       bender="661.08116,427.10583 , 5,0"
       bottom_edge_variation="58.998091;1"
       top_edge_variation="58.998091;1"
       bottom_tgt_variation="0;1"
       top_tgt_variation="0;1"
       scale_bf="1"
       scale_bb="1"
       scale_tf="1"
       scale_tb="1"
       top_smth_variation="0;1"
       bottom_smth_variation="0;1"
       fat_output="true"
       stroke_width_top="1"
       stroke_width_bottom="1"
       front_thickness="1"
       back_thickness="0.25" />
    <inkscape:path-effect
       effect="bend_path"
       id="path-effect16"
       is_visible="true"
       lpeversion="1"
       bendpath="M 331.80123,427.10583 H 990.3611"
       prop_scale="1"
       scale_y_rel="false"
       vertical="false"
       hide_knot="false" />
    <inkscape:path-effect
       effect="mirror_symmetry"
       start_point="990.3611,132.11538"
       end_point="990.3611,722.09629"
       center_point="990.3611,427.10583"
       id="path-effect15"
       is_visible="true"
       lpeversion="1.2"
       lpesatellites=""
       mode="free"
       discard_orig_path="false"
       fuse_paths="false"
       oposite_fuse="false"
       split_items="false"
       split_open="false"
       link_styles="false" />
    <inkscape:path-effect
       effect="bspline"
       id="path-effect14"
       is_visible="true"
       lpeversion="1.3"
       weight="33.333333"
       steps="2"
       helper_size="0"
       apply_no_weight="true"
       apply_with_weight="true"
       only_selected="false"
       uniform="false" />
    <inkscape:path-effect
       effect="interpolate"
       id="path-effect13"
       is_visible="true"
       lpeversion="1"
       trajectory="M 0,0 V 0"
       equidistant_spacing="true"
       steps="5" />
    <inkscape:path-effect
       effect="offset"
       id="path-effect12"
       is_visible="true"
       lpeversion="1.2"
       linejoin_type="miter"
       unit="mm"
       offset="0"
       miter_limit="4"
       attempt_force_join="false"
       update_on_knot_move="true" />
    <inkscape:path-effect
       effect="fillet_chamfer"
       id="path-effect11"
       is_visible="true"
       lpeversion="1"
       nodesatellites_param="F,0,0,1,0,0,0,1 @ F,0,0,1,0,0,0,1 @ F,0,0,1,0,0,0,1 @ F,0,0,1,0,0,0,1 @ F,0,0,1,0,0,0,1 @ F,0,0,1,0,0,0,1 @ F,0,0,1,0,0,0,1 @ F,0,0,1,0,0,0,1 @ F,0,0,1,0,0,0,1 @ F,0,0,1,0,0,0,1 @ F,0,0,1,0,0,0,1 @ F,0,0,1,0,0,0,1 @ F,0,0,1,0,0,0,1 @ F,0,0,1,0,0,0,1 @ F,0,0,1,0,0,0,1 @ F,0,0,1,0,0,0,1"
       radius="0"
       unit="px"
       method="auto"
       mode="F"
       chamfer_steps="1"
       flexible="false"
       use_knot_distance="true"
       apply_no_radius="true"
       apply_with_radius="true"
       only_selected="false"
       hide_knots="false" />
  </defs>
  <g
     inkscape:label="Слой 1"
     inkscape:groupmode="layer"
     id="layer1">
    <path
       style="fill:#1e3b19;fill-opacity:0.659574;stroke:#000000;stroke-width:2.8989;stroke-dasharray:none;stroke-opacity:1"
       d="m 63.367055,725.24705 c 24.73817,-0.3601 48.593685,-0.13833 72.477155,-0.0479 m -14.34786,-2.52235 c 21.45835,-0.16061 43.39002,-0.0206 65.49187,0.17695 m -12.65353,1.05742 c 22.06642,-0.1709 44.84044,-0.40216 67.61353,-0.96703 m -10.03293,0.68601 c 29.26355,0.42573 57.64494,0.25934 86.73429,0.65297 m -20.95198,-2.17667 c 25.23354,-0.27807 51.67763,-0.31553 78.61374,-0.72446 m -15.85859,2.52157 c 22.77961,0.28681 46.47978,-0.46973 70.54266,-1.75935 m -15.02177,0.48579 c 22.24116,0.004 45.29815,-0.10413 68.67735,-0.32073 m -10.00391,-0.37463 c 21.37924,-0.0913 42.20143,0.3007 62.74176,1.04543 m -9.47934,0.8922 c 28.13148,0.23016 55.48345,-0.41435 82.91516,-1.36148 m -17.43703,-0.98996 c 27.20551,0.55899 55.25269,0.54268 83.52663,1.35698 m -18.39537,0.93194 c 25.33449,0.1583 49.79503,-0.009 74.46119,-0.19362 m -16.05567,-1.9157 c 27.73599,0.31398 54.40473,-0.25627 81.38398,-0.95302 m -17.70072,1.23419 c 25.64186,0.10469 50.9293,0.9373 76.75142,2.72605 m -13.19256,-2.67118 c 21.80396,0.47858 43.85633,0.84138 65.55319,1.85928 M 899.1572,723.0752 c 23.90242,-0.28798 47.38014,-0.13427 70.56102,-0.0696 m -12.88501,0.0151 c 21.06553,0.26375 42.6162,0.36205 64.42219,0.68226 m -956.003535,0.51302 c 29.609404,0.2683 58.742565,-0.80438 88.127755,-2.47026 m -20.59067,0.34527 c 29.60911,0.3114 59.36786,0.7062 89.41,2.08683 m -22.09321,-2.22752 c 24.85541,0.0983 50.13818,-0.20576 75.98303,-0.70932 m -17.20238,1.99043 c 27.60798,-0.26758 55.12934,-0.27629 83.56585,-0.68072 m -17.14093,1.62608 c 28.67484,-0.14767 56.93616,-0.42656 85.23128,-1.24262 m -18.14588,-0.74192 c 29.19074,-0.64282 59.46079,0.27079 89.73987,0.8705 m -21.47765,1.40308 c 28.61284,-0.22217 57.17869,-1.10582 85.77798,-3.24165 m -19.37755,3.21043 c 29.74932,-0.13975 60.31483,-0.0428 90.96613,-0.12353 m -20.05705,-3.53248 c 27.40822,0.5138 54.07215,0.89671 80.82235,2.40311 m -15.6694,0.33107 c 21.32548,-0.0148 42.73792,0.15571 63.96634,0.48317 m -9.94339,0.68076 c 26.55484,-0.35062 52.9548,-0.16978 79.59592,-0.2459 m -16.22137,0.44924 c 22.23279,0.1911 44.85484,0.0118 67.24073,-0.22438 m -13.09243,0.50564 c 25.35676,0.22303 51.06224,-0.5511 77.10948,-1.85878 m -16.54787,-2.10239 c 29.6327,-0.42846 60.09282,0.43314 90.51875,1.32213 m -20.1155,2.38915 c 20.54103,0.40642 41.44715,0.32962 62.55025,0.33602 M 63.699411,722.8488 c 25.124001,0.095 50.017859,0.11484 74.933599,0.2553 m -15.68064,0.20559 c 27.86672,-0.009 54.75946,0.44758 81.3028,1.33718 m -17.26322,-2.95441 c 28.16551,-0.13702 56.74842,0.1207 85.20757,0.42586 m -16.16634,-1.04296 c 27.22062,0.0969 53.4673,0.61327 79.93966,1.78988 m -19.8727,2.80391 c 27.73664,0.21643 56.08271,0.0397 84.67958,0.0299 m -18.32948,-5.10829 c 21.17224,-0.44309 42.93906,-0.21885 64.68763,9.6e-4 m -8.59251,3.06952 c 30.08879,-0.12311 58.30558,-0.30646 85.73449,-0.89446 m -16.55274,2.17583 c 29.39123,0.22468 58.12996,0.10579 87.48748,0.24613 m -22.34401,-4.7696 c 22.07316,0.0992 44.48422,0.43988 67.22585,1.18961 m -11.31336,3.80261 c 26.33422,0.21736 54.19073,-0.29384 82.44958,-1.02762 m -18.85046,-1.41795 c 28.13828,-0.50594 57.48794,0.46169 87.16695,1.56731 m -17.40683,0.38598 c 22.65437,-0.0196 45.50408,-0.005 68.33527,1.1e-4 m -12.65329,-1.664 c 22.67581,0.37467 45.87985,0.14854 68.86141,-0.006 m -12.6843,-0.54062 c 21.36911,-0.11279 43.40344,-0.0169 65.43849,0.10038 m -11.91015,2.51701 c 26.69384,0.3829 53.89782,-0.24446 81.49566,-0.99062 m -17.12348,-0.70484 c 10.33638,-0.002 20.68428,0.0154 31.04818,0.0533 M 62.904051,723.08305 c 27.869213,-0.24693 55.719539,-0.0448 84.421049,0.006 m -17.1281,-0.85734 c 30.09311,-0.1091 59.02547,-0.13807 86.78019,-0.41995 m -17.33961,1.69331 c 28.86175,-0.32241 56.14916,-0.68653 83.36621,-1.95498 m -17.49271,-0.67788 c 27.9111,-0.45181 56.10434,0.004 83.92931,0.18487 m -16.07013,2.10445 c 25.76323,0.2606 51.40804,-0.40682 77.2552,-1.42587 m -17.84975,-0.65256 c 25.0316,-0.5103 50.93662,0.52837 76.71728,2.0189 m -17.02097,1.1923 c 23.69678,0.12661 47.68653,0.13907 72.03392,0.26082 m -11.69568,-1.92498 c 29.50277,-0.11189 58.58996,-0.21833 87.37319,-0.62644 m -19.12195,1.46251 c 23.99901,0.22364 48.86387,0.44473 73.72784,1.09334 m -14.45269,-1.81239 c 24.37756,-0.50193 49.7063,0.087 75.44478,0.77189 m -12.0375,-1.4202 c 23.82988,-0.19706 46.87884,0.33977 69.19154,1.24718 m -15.31712,0.41701 c 27.39269,0.12566 54.78354,-0.28225 83.16202,-0.92135 m -16.29781,-1.35224 c 26.02409,-0.26532 52.48925,0.64304 78.22098,2.12512 m -15.6869,0.41405 c 28.99125,0.005 57.35241,-0.42795 85.91407,-1.28559 m -18.03005,-0.0505 c 22.85287,-0.41324 46.21004,-0.13859 69.77824,0.0962 M 64.489467,720.75499 c 21.81025,-0.0419 44.013883,0.0236 66.187913,0.13208 m -10.27532,3.18053 c 27.08516,0.2527 55.43054,0.28799 83.69701,0.75125 m -18.97744,-2.22007 c 21.83341,0.0417 44.33216,0.32795 67.34774,0.93174 m -9.63857,1.38838 c 23.12027,-0.40041 46.18423,-0.15207 69.03738,0.0299 m -11.70131,-1.39709 c 21.96623,-0.40343 43.09352,-0.11672 63.88327,0.24025 m -12.24796,1.17417 c 24.27754,0.41729 48.36665,-0.0731 72.89595,-0.67695 m -15.40067,-2.25287 c 23.44428,0.0963 46.56103,0.0629 69.71447,0.0781 m -10.0135,0.96101 c 29.01029,0.13197 58.19971,-0.22575 86.36222,-0.71309 m -18.15357,-1.34955 c 24.7755,-0.24443 50.89878,-0.21091 77.28108,-0.42372 m -14.70859,3.54868 c 22.07691,-0.28192 44.28791,-0.3672 66.63854,-0.71209 m -13.1791,-0.21725 c 24.44633,0.51975 48.81738,0.12977 72.63843,-0.12646 m -11.1337,-1.38175 c 27.83039,-0.5114 54.09809,0.39809 79.76238,1.46195 M 777.89,723.3174 c 27.63912,-0.31109 56.38391,-0.70461 84.90355,-1.99132 m -18.97387,0.86653 c 21.77954,0.21861 43.01685,0.11924 64.18823,0.0373 m -12.09615,1.14235 c 21.49971,0.18127 43.37946,0.12792 65.73723,0.11034 m -10.63844,-1.34466 c 21.53497,0.31082 44.05541,0.12938 66.88015,-0.06 m -9.4988,0.69266 c 6.8085,0.004 13.5938,-0.0205 20.3515,-0.0712 M 56.669334,721.92668 c 30.034088,-0.60537 60.823776,0.73652 92.479786,2.20902 m -20.72729,-1.34952 c 22.46261,-0.19192 45.44706,0.26688 68.52784,1.05308 m -10.78069,-1.49067 c 21.65347,-0.36189 42.3582,0.0879 62.79257,0.80824 m -10.67902,1.14521 c 21.39162,0.33829 43.2457,-0.2263 64.93676,-1.17373 m -10.44749,0.51729 c 24.3063,-0.084 48.3943,-0.0298 72.21818,0.009 m -14.127,-1.07109 c 22.84592,-0.18757 45.80681,-0.27374 69.24456,-0.57271 m -13.23033,-1.38021 c 21.34361,0.26818 43.30849,0.41738 65.53334,0.8631 m -10.96189,0.46477 c 22.44309,-0.29893 45.38737,-0.15742 68.74826,-0.0685 m -11.76981,1.49058 c 21.63541,0.0839 44.1627,0.0301 66.82607,-0.0246 m -11.07727,-1.46748 c 27.03557,0.3628 53.30473,0.2302 79.01228,0.46231 m -14.62419,1.99061 c 21.29754,-0.13995 42.79282,-0.35061 64.43087,-0.85208 m -13.77264,0.24273 c 26.34657,-0.10917 53.25228,-0.18765 80.72003,-0.49294 m -17.38534,-2.47557 c 22.83735,0.45399 46.411,0.70176 69.9421,1.56526 m -12.28969,2.20034 c 26.85804,0.46172 54.99807,-0.0845 83.32522,-0.51175 m -14.45645,-3.19175 c 22.3398,-0.45156 44.20751,-0.0649 65.8746,0.42232 m -11.72785,1.77333 c 29.31855,0.39075 58.19968,-0.38292 87.43305,-1.21542 m -19.62,-0.61287 c 8.3149,-0.0242 16.6324,0.0535 24.9655,0.22673 m -966.848274,2.15625 c 29.283082,0.3952 59.568844,-0.10326 89.493424,-0.33425 m -22.33191,-0.56439 c 21.92317,-0.15338 44.34499,-0.22318 66.79381,-0.45648 m -9.71733,3.32392 c 30.39657,0.56333 60.0631,-0.6182 90.31809,-1.88004 m -19.74014,-1.37814 c 25.16341,-0.45774 50.02003,0.17014 75.3092,0.94148 m -13.88017,-1.33964 c 26.88326,0.24523 52.85326,0.13253 79.22182,0.23579 m -17.22402,1.70932 c 26.67975,-0.28627 52.90814,-0.80186 78.54712,-2.23188 m -14.19842,2.61497 c 21.08808,0.36484 42.06837,-0.37723 62.839,-1.68588 m -10.87499,0.27958 c 28.05699,0.34719 56.33938,0.40681 84.13431,1.10576 m -16.2082,0.97203 c 24.11818,-0.528 48.9222,-0.2784 73.6938,-0.29305 m -14.9771,-1.15997 c 29.26442,-0.30141 58.54425,-0.14626 88.25815,-0.37918 m -22.1942,1.27783 c 29.8415,0.31332 59.51475,0.0146 90.61068,-0.0139 m -21.26111,-2.38463 c 21.25379,-0.0183 42.27199,0.12446 63.10572,0.39305 m -7.61558,1.77889 c 27.73816,0.15604 55.75746,-0.006 82.6895,-0.093 m -15.6728,0.0459 c 26.91614,-0.46236 53.99991,-0.0642 80.2021,0.0408 m -16.95129,-0.29849 c 21.98831,-0.14001 43.56128,-0.0263 64.80841,0.12987 m -11.0525,-1.97356 c 9.6938,-0.008 19.5177,0.0352 29.4421,0.1266 m -333.30254,0.88903 z m 281.32035,0 z m -91.23903,0 z m -665.2846,0 z m 334.54311,0 z"
       id="path2"
       inkscape:path-effect="#path-effect10"
       inkscape:original-d="M 56.548477,722.97376 H 1029.7648"
       transform="translate(349.4306,202.40412)" />
    <path
       style="fill:#1e3b19;fill-opacity:0.659574;stroke:#000000;stroke-width:3.27685;stroke-dasharray:9.83055, 9.83055;stroke-dashoffset:0;stroke-opacity:1"
       d="m 68.272394,134.2198 c 22.183367,-0.002 44.366686,-0.004 66.549966,-0.005 m -0.39759,-2.05719 c 19.7885,-8e-4 39.57703,-0.002 59.36559,-0.002 m -1.02065,1.23674 c 20.56294,-8.5e-4 41.12591,-0.002 61.68892,-0.003 m 1.18605,0.0729 c 26.22366,0.002 52.44728,0.004 78.67085,0.006 m -1.29762,-1.45942 c 23.37507,-0.001 46.7502,-0.003 70.12539,-0.004 m 0.84867,0.93383 c 21.1129,0.001 42.22586,0.003 63.33886,0.004 m -0.81567,-0.0901 c 20.59595,2e-5 41.19195,3e-5 61.78798,4e-5 m 1.51207,-0.95317 c 19.37027,-4.5e-4 38.74052,-8.9e-4 58.11074,-0.001 m -0.61996,0.75912 c 25.41447,0.001 50.8289,0.002 76.24329,0.003 m 0.39358,-0.91739 c 25.08843,0.003 50.17689,0.006 75.2654,0.008 m -0.37932,0.87452 c 22.66847,7.9e-4 45.3369,0.002 68.00528,0.002 m -0.96109,-1.10389 c 24.83395,0.002 49.66784,0.003 74.50168,0.005 m -0.28967,1.07355 c 23.0557,5.2e-4 46.11138,0.001 69.16705,0.002 m 1.30621,-0.0954 c 15.83626,0.002 31.67253,0.004 47.50881,0.006 m -320.31456,0.12721 z m 272.7307,0 z m -88.4532,0 z m -644.97126,0 z m 324.32841,0 z"
       id="path3"
       sodipodi:nodetypes="cc"
       inkscape:path-effect="#path-effect21"
       inkscape:original-d="M 62.265793,132.64168 H 1005.7666"
       transform="translate(349.4306,202.40412)" />
    <text
       xml:space="preserve"
       style="font-style:normal;font-variant:normal;font-weight:normal;font-stretch:normal;font-size:32px;line-height:1.25;font-family:'Liberation Sans';-inkscape-font-specification:'Liberation Sans';letter-spacing:0px;word-spacing:0px;display:inline;fill:#000000;fill-opacity:1;stroke:none;stroke-width:0.999999"
       x="385.1008"
       y="961.31702"
       id="text1406"><tspan
         sodipodi:role="line"
         id="tspan1404"
         x="385.1008"
         y="961.31702"
         style="font-style:normal;font-variant:normal;font-weight:bold;font-stretch:normal;font-size:32px;font-family:Monospace;-inkscape-font-specification:'Monospace Bold';stroke-width:0.999999">0%</tspan></text>
    <text
       xml:space="preserve"
       style="font-style:normal;font-variant:normal;font-weight:normal;font-stretch:normal;font-size:32px;line-height:1.25;font-family:'Liberation Sans';-inkscape-font-specification:'Liberation Sans';letter-spacing:0px;word-spacing:0px;display:inline;fill:#000000;fill-opacity:1;stroke:none;stroke-width:0.999999"
       x="350.14444"
       y="318.95706"
       id="text1406-3"><tspan
         sodipodi:role="line"
         id="tspan1404-1"
         x="350.14444"
         y="318.95706"
         style="font-style:normal;font-variant:normal;font-weight:bold;font-stretch:normal;font-size:32px;font-family:Monospace;-inkscape-font-specification:'Monospace Bold';stroke-width:0.999999">100%</tspan></text>
    <path
       style="fill:#3b1919;fill-opacity:0.659574;stroke:#424787;stroke-width:3.27685;stroke-dasharray:none;stroke-dashoffset:0;stroke-opacity:1"
       d="M 92.726135,720.27648 C 114.07525,703.09482 134.54138,686.49449 155.0359,669.76361 m -7.34718,2.7101 c 18.43466,-15.16848 37.34227,-30.03607 56.4205,-44.84645 m -7.08086,5.22195 c 18.92421,-15.76699 38.55649,-31.59382 58.18729,-47.75489 m -4.01561,5.18315 c 25.25725,-19.45946 49.63294,-39.51115 74.71542,-59.00266 m -11.16938,5.13486 c 21.66173,-18.00647 44.53454,-35.77279 67.89857,-53.90984 m -8.08313,8.33321 c 19.55345,-15.72591 40.0276,-32.49494 60.86431,-49.79735 m -8.67832,5.22666 c 19.09403,-15.61673 39.00365,-31.34545 59.23577,-47.1826 m -3.96711,4.13718 c 18.41978,-14.78055 36.28222,-29.07759 53.86311,-43.02214 m -4.14091,4.88177 c 24.24862,-19.04229 47.71825,-38.95977 71.26668,-59.17898 m -8.24808,5.87795 c 23.372,-18.46838 47.58515,-37.51146 72.02597,-55.72501 m -9.43837,7.62608 c 21.87136,-17.03088 42.86825,-34.38815 64.07149,-51.7614 m -8.74557,3.54783 c 23.94202,-18.5173 46.81629,-37.91907 70.00188,-57.44697 m -8.92739,7.79125 c 12.13612,-9.535 24.16525,-18.85159 36.23464,-27.91109 M 93.684138,715.84041 C 112.39036,700.94349 131.34518,685.93057 149.94426,671.573 m -4.71404,3.55091 c 20.5726,-16.81543 40.721,-33.1888 60.57188,-49.65165 m -6.12749,5.06563 c 23.59082,-18.8307 48.00668,-37.94347 72.73615,-56.47796 m -8.01134,6.94809 c 25.50927,-20.08256 50.54256,-41.50659 75.82735,-63.52289 m -10.34447,8.00319 c 25.47934,-20.18654 51.10883,-40.28953 77.0207,-59.40701 m -11.6984,5.54153 c 21.39226,-17.09083 43.21237,-34.58399 65.59383,-52.27679 m -9.89279,7.45367 c 23.80905,-19.12341 47.53167,-37.988 72.16909,-57.2482 m -8.3449,8.20021 c 24.69322,-19.91034 48.97288,-39.95223 73.28639,-60.53065 m -8.4834,6.47979 c 25.06095,-21.1408 51.2018,-40.72569 77.35055,-60.62339 m -11.08282,9.17215 c 24.62133,-20.03383 49.19525,-40.72891 73.80339,-62.67658 m -9.66702,10.46784 c 25.56027,-20.9318 51.93647,-41.62687 78.39901,-62.49969 m -9.36176,4.46106 c 13.03892,-10.06733 25.85226,-20.17557 38.578,-30.11239 M 91.319215,719.44908 c 18.321555,-14.92463 36.730365,-29.6642 54.954835,-44.24653 m -4.44392,4.79147 c 22.86948,-18.64273 45.58442,-36.7534 68.53997,-55.12199 m -7.94349,6.6359 c 19.07578,-15.4785 38.54079,-31.32774 57.7697,-47.23346 m -7.01785,5.04595 c 21.81459,-17.35828 43.97799,-35.71409 66.48302,-54.6029 m -8.9007,3.61319 c 25.45352,-21.17152 51.73423,-41.05288 77.98126,-60.90701 m -9.47057,10.34507 c 21.16088,-16.67755 42.8457,-34.05019 64.76629,-51.14041 m -4.39502,3.03149 c 21.63123,-17.24128 43.03277,-34.55765 64.45551,-51.75342 m -8.24543,5.76279 c 24.00855,-19.15937 47.04357,-37.85264 69.7284,-56.11272 m -8.19076,3.82649 c 24.20361,-19.80166 48.82435,-39.20801 73.32185,-58.56793 m -6.59945,6.10713 c 23.49084,-18.41578 46.00723,-36.41165 68.75011,-53.74806 m -11.39369,9.1408 c 23.84387,-19.10506 48.29672,-38.6031 73.00118,-57.93455 m -9.09343,1.79451 c 18.15843,-15.40195 36.91189,-30.13618 55.6466,-44.87526 m -3.05694,7.20674 c 5.37427,-4.29271 10.66916,-8.58867 15.89371,-12.89055 m -259.76907,207.88947 20.54978,-16.55871 m 192.20424,-154.87533 18.33412,-14.77336 m -87.33542,70.37359 19.05271,-15.35239 M 194.70952,635.0898 219.00198,615.5153 m 228.71233,-184.293 21.65762,-17.45138"
       id="path6"
       inkscape:path-effect="#path-effect8"
       inkscape:original-d="M 86.732235,722.09629 818.91367,132.11538"
       transform="translate(349.4306,202.40412)" />
    <path
       style="fill:none;fill-opacity:0.659574;stroke:#ebe114;stroke-width:2.8989;stroke-dasharray:none;stroke-dashoffset:0;stroke-opacity:1"
       d="m 209.53623,719.6367 c 9.19479,-26.78249 16.83363,-52.9128 23.76557,-76.76109 m -4.03338,5.19652 c 7.06717,-23.84135 14.76151,-46.97689 22.15992,-68.24481 m -4.57226,7.49498 c 1.06969,-3.78773 2.16119,-7.55229 3.26784,-11.28713 6.14863,-20.751 13.1363,-41.80482 19.70398,-61.16439 m -0.31497,7.82629 c 9.29597,-25.32149 16.18698,-45.79897 25.20833,-68.56339 2.68513,-6.77564 5.41794,-13.37225 8.24862,-19.81121 m -7.04232,8.5649 c 10.39927,-28.13759 23.67291,-54.23636 38.40473,-77.96646 m -6.17815,12.14513 c 3.64,-7.03737 7.53654,-14.0389 11.66843,-20.96299 9.38912,-15.73401 20.01186,-31.1021 31.77924,-45.82638 m -8.95339,6.30013 c 10.59714,-14.22121 22.81569,-27.51393 36.60236,-39.87343 5.38865,-4.83082 11.02211,-9.52405 16.90385,-14.08428 m -3.40659,4.77319 c 17.40464,-14.69018 36.12136,-27.24996 56.8127,-37.72911 m -3.91982,4.69812 c 7.48999,-4.02218 15.20292,-7.97734 23.16146,-11.85529 18.5662,-9.04674 38.8389,-17.85191 60.82561,-26.03566 m -10.80859,1.76315 c 20.52038,-6.43008 44.40947,-12.78631 70.06996,-17.67404 6.38701,-1.21658 12.94556,-2.35386 19.64163,-3.38177 m -12.0495,3.89015 c 25.17292,-5.00424 52.63117,-10.00376 81.09561,-14.19408 m -11.82567,-1.58793 c 25.53248,-3.15083 58.52029,-7.7059 84.05278,-10.85672 -0.0695,0.009 5.31582,-0.65868 5.24632,-0.65001 m -12.07718,1.87359 c 1.84179,-0.15591 3.68903,-0.30533 5.54182,-0.44805 25.00791,-1.92632 51.27494,-2.65397 79.46393,-1.55726 m -7.26403,-3.3491 c 22.36689,-0.69317 47.56387,-1.34397 71.95562,-0.6887 m -6.22005,-0.1546 c 25.71695,-1.40107 50.65806,-1.90184 77.54917,-2.33642 M 207.99332,713.91719 c 9.48883,-29.91303 19.73621,-59.34786 29.57919,-85.87172 m -2.36151,11.25525 c 6.88367,-20.99676 13.38735,-42.94711 19.48488,-63.652 3.3024,-11.21369 6.44936,-21.94317 9.72458,-32.89802 m -5.19474,12.44004 c 10.75504,-33.07985 21.19481,-62.85545 32.5727,-89.66245 m -8.04408,8.83917 c 2.79411,-7.61764 5.66183,-15.12338 8.61883,-22.51619 7.61661,-19.04233 15.79848,-37.26706 24.78181,-54.63107 m -7.61354,10.28831 c 8.97003,-19.14664 18.32367,-36.81431 28.8536,-53.514 5.66243,-8.98019 11.64919,-17.65377 18.05785,-26.06537 m -6.6064,12.0573 c 14.97682,-22.45441 31.24248,-42.66433 50.18984,-61.33495 3.80774,-3.75212 7.72008,-7.43839 11.74836,-11.0655 m -8.66799,6.08232 c 22.55273,-21.83338 49.85967,-38.22834 83.0166,-52.55656 m -13.68977,8.19508 c 4.09844,-2.17063 8.28164,-4.31387 12.55863,-6.43793 22.84972,-11.34771 47.1561,-21.56893 75.59841,-32.83859 M 549.07862,198.37 c 17.21916,-5.55024 35.88745,-10.46334 56.28386,-14.93833 13.31162,-2.92059 27.21818,-5.62435 41.85874,-8.20286 m -12.03178,-2.83348 c 26.99695,-4.37175 57.3029,-8.49238 88.13673,-9.77128 m -9.15704,1.47666 c 18.38608,-2.32345 37.70451,-4.22641 57.8492,-5.7024 4.04635,-0.29647 8.12371,-0.57554 12.23063,-0.83717 m -6.03253,1.37799 c 28.27589,-2.93495 56.01504,-4.54139 87.91238,-6.27413 m -10.10583,1.29522 c 23.30348,-1.02621 48.2514,-2.33031 73.99764,-3.53976 m -10.05758,0.93542 c 19.40506,-0.43013 39.48315,-1.43755 60.74688,-2.92151 M 204.22136,718.75152 c 9.92456,-32.66795 21.44468,-65.27925 30.9948,-92.59269 m -3.08934,15.67142 c 6.76876,-21.69005 13.7733,-43.20104 20.82527,-63.67099 1.64271,-4.76835 3.28883,-9.4827 4.93712,-14.13559 m 0.12121,5.41283 c 9.18556,-28.37692 17.07276,-53.3154 25.75169,-78.35911 m -5.02291,8.44376 c 5.72893,-16.11112 11.02549,-31.3388 16.21866,-45.75523 4.78057,-13.27103 9.42893,-25.74279 14.23607,-37.69311 m -4.11176,5.87148 c 10.35733,-25.24788 21.97597,-48.29015 34.69157,-69.07058 2.8419,-4.64438 5.74753,-9.19075 8.71824,-13.64076 m -2.67206,8.97419 c 16.62235,-25.77684 33.71414,-47.91588 54.53219,-66.51853 m -12.44387,10.73209 c 3.58805,-3.6719 7.30082,-7.27541 11.14234,-10.80746 18.12331,-16.66333 39.20248,-31.81551 63.62121,-45.02145 m -10.64739,-1.35795 c 10.1601,-6.67817 21.14332,-12.70432 32.99633,-18.24711 9.87111,-4.61599 20.25254,-8.85439 31.22849,-12.87234 m -2.82332,6.42977 c 28.29585,-11.31931 57.35492,-20.88849 89.0531,-29.86946 m -7.76972,6.25146 c 4.62913,-1.04907 9.31703,-2.08378 14.05745,-3.09958 24.69225,-5.29117 51.97141,-10.32245 81.19624,-14.21885 m -16.48851,-4.48464 c 22.60791,-3.30894 47.41137,-5.90886 74.09518,-7.33741 m -7.48724,5.46724 c 3.06525,-0.29886 27.5077,-2.70699 30.57295,-3.00585 18.3075,-1.80719 40.03501,-3.95431 61.00669,-5.92545 m -14.13348,-1.09108 c 29.59763,-2.76762 61.11899,-3.01394 96.87371,-2.46086 m -9.96926,0.72347 c 23.9975,-0.98754 49.07968,-1.71083 75.46527,-2.25595 m -8.72689,-2.27166 c 5.07278,-0.003 10.21057,-0.0362 15.42675,-0.0916 m -391.83321,37.02207 25.75792,-5.7458 m 292.99668,-29.60496 23.5326,-0.78022 m -127.5562,6.25132 24.4141,-1.62895 m -577.8541,412.22818 9.51023,-29.71263 M 446.15029,242.94458 470.16004,228.9041"
       id="path6-3"
       sodipodi:nodetypes="cc"
       inkscape:path-effect="#path-effect9"
       inkscape:original-d="M 206.30956,722.87507 C 345.81979,292.48919 325.88031,158.64006 990.08341,146.5091"
       transform="translate(349.4306,202.40412)" />
    <path
       style="fill:none;fill-opacity:0.659574;stroke:#42ba0f;stroke-width:3.27685;stroke-dasharray:none;stroke-dashoffset:0;stroke-opacity:1"
       d="m 333.01998,718.90717 c 0.006,-21.82021 0.0122,-43.64035 0.0181,-65.46043 3.49247,-7.3e-4 6.98494,-0.001 10.47741,-0.002 m -10.08399,-3.06218 c 22.57563,-0.002 45.15132,-0.005 67.72709,-0.007 m -8.15799,1.24147 c 2.65256,-2.9e-4 5.30511,-5.8e-4 7.95768,-8.7e-4 -0.006,-20.81242 -0.0113,-41.62485 -0.0169,-62.43728 m 2.2144,6.34627 c 0.004,-12.77486 0.007,-25.54974 0.0111,-38.32463 17.1435,0.004 34.28697,0.007 51.43039,0.0108 m -12.8978,-1.61265 c 11.84968,-0.002 23.6994,-0.004 35.54916,-0.006 -0.003,-14.82173 -0.005,-29.64344 -0.008,-44.46514 m 1.21788,11.68441 c -0.004,-22.46869 -0.009,-44.93753 -0.013,-67.40649 1.61725,2.7e-4 3.23451,5.3e-4 4.85176,8e-4 m -7.11217,0.0228 c -1.5e-4,-0.83205 -3.1e-4,-1.6641 -4.6e-4,-2.49615 21.17487,5e-5 42.34983,9e-5 63.5249,1.1e-4 -2.6e-4,-1.48945 -5.3e-4,-2.97889 -7.9e-4,-4.46834 m 1.40189,4.03072 c 0.84175,-5e-5 1.68351,-10e-5 2.52526,-1.5e-4 0.002,-12.43912 0.003,-24.87821 0.005,-37.31727 0.0704,-8.81939 0.14085,-17.63876 0.21125,-26.45813 m 0.52901,9.30512 c 0.10489,-13.05551 0.20976,-26.11105 0.3146,-39.16661 15.93951,0.0434 31.87898,0.0867 47.81842,0.12993 m -11.48023,-3.82677 c 25.74294,0.0746 51.48598,0.14915 77.22913,0.22362 -0.0262,-2.8784 -0.0523,-5.7568 -0.0785,-8.63521 m -1.15816,12.30357 c 0.57962,0.002 1.15924,0.003 1.73886,0.005 -0.21882,-25.27739 -0.43777,-50.55483 -0.65684,-75.83232 m -2.77606,5.34382 c -0.14991,-17.29687 -0.29989,-34.59379 -0.44992,-51.89075 11.03342,0.0369 22.06682,0.0737 33.10019,0.1105 m -11.70444,-0.56169 c 26.30884,0.0852 52.61763,0.17056 78.92637,0.256 m -5.13877,0.17023 c 6.34243,0.0222 12.68487,0.0443 19.02731,0.0664 -0.004,-15.39034 -0.007,-30.78069 -0.0112,-46.17105 1.3921,0.007 2.78421,0.0144 4.17631,0.0217 m -4.68397,4.92353 c 3e-5,-0.86622 6e-5,-1.73244 9e-5,-2.59865 23.99914,0.11286 47.99822,0.22579 71.99724,0.33877 m -9.12821,-0.65041 c 27.35327,0.1383 54.70666,0.27656 82.06015,0.41478 -1.4e-4,-1.49009 -2.9e-4,-2.98018 -4.4e-4,-4.47027 m -3.0808,6.59019 c 2.02233,0.0101 4.04466,0.0203 6.06699,0.0304 0.003,-20.28709 0.005,-40.57427 0.007,-60.86154 8.30593,0.001 16.61184,0.002 24.91776,0.003 m -13.1547,-3.25367 c 17.90283,0.003 35.80566,0.005 53.70851,0.008 M 329.69967,713.00884 c 7.3e-4,-21.19979 0.002,-42.39962 0.002,-63.5995 4.65934,2.5e-4 9.31869,5e-4 13.97804,7.4e-4 m -9.93214,1.07388 c 22.03654,-0.003 44.07307,-0.006 66.1096,-0.009 0.001,-6.33662 0.003,-12.67325 0.004,-19.00987 m 2.41915,12.32701 c 0.002,-28.32701 0.005,-56.65403 0.007,-84.98108 1.40703,-1e-4 2.81407,-2.1e-4 4.2211,-3.2e-4 m -4.39217,3.40943 c -4.3e-4,-2.32507 -8.6e-4,-4.65015 -0.001,-6.97522 25.20824,-0.008 50.41659,-0.0156 75.62505,-0.0231 -5.7e-4,-3.30179 -0.001,-6.60358 -0.002,-9.90536 m -2.84206,13.74315 c 0.71329,-8e-5 1.42658,-1.6e-4 2.13986,-2.4e-4 5.1e-4,-29.09554 0.001,-58.19118 0.002,-87.28691 m -0.0484,11.29875 c -0.001,-8.9476 -0.002,-17.8952 -0.003,-26.84279 21.17638,-0.001 42.35281,-0.003 63.5293,-0.004 -1.2e-4,-1.15475 -2.5e-4,-2.3095 -3.7e-4,-3.46425 m -6.5563,-1.92823 c 2.97597,8.2e-4 5.95194,0.002 8.92792,0.002 0.002,-12.43495 0.005,-24.8699 0.007,-37.30486 0.10301,-12.80238 0.20599,-25.60476 0.30895,-38.40716 m 0.82716,13.8657 c 0.0803,-10.37019 0.16053,-20.74037 0.2408,-31.11054 12.05909,0.0313 24.11818,0.0626 36.17727,0.0939 m -6.5038,1.51524 c 27.52188,0.0664 55.04374,0.13293 82.56557,0.19951 m -8.90207,0.38119 c 3.87417,0.0106 7.74834,0.0211 11.62251,0.0317 -0.1813,-19.69578 -0.36255,-39.3916 -0.54377,-59.08746 m -3.38131,7.3801 c -0.20099,-22.40146 -0.40195,-44.80302 -0.60286,-67.20468 4.04492,0.0133 8.08985,0.0267 12.13478,0.04 m -9.77309,-5.6784 c 31.20223,0.0928 62.40459,0.18584 93.60708,0.27905 m -10.39735,5.15918 c 9.18,0.0318 18.36002,0.0636 27.54005,0.0954 -0.001,-15.3908 -0.002,-30.78164 -0.004,-46.17251 1.24726,0.006 2.49453,0.0129 3.7418,0.0193 m 0.3734,2.07625 c 1.1e-4,-1.56727 2.1e-4,-3.13453 3.2e-4,-4.7018 24.5154,0.12088 49.03077,0.24175 73.5461,0.36261 m -10.79075,0.15688 c 27.10578,0.13203 54.21143,0.26413 81.31695,0.39629 2e-4,-1.70733 3.9e-4,-3.41467 5.9e-4,-5.122 m -7.44577,2.75219 c 1.79595,0.009 3.59189,0.0173 5.38784,0.0259 -0.002,-20.29115 -0.004,-40.58227 -0.006,-60.87336 7.49769,-5e-4 14.99539,-0.001 22.49309,-0.001 m -7.32416,-0.31432 c 20.89832,0.001 41.79655,0.002 62.69471,0.003 M 329.44185,720.95116 c -0.002,-22.26783 -0.003,-44.53569 -0.004,-66.80359 6.79735,7.4e-4 13.59471,0.001 20.39207,0.002 m -9.95164,-7.03301 c 20.63133,-0.006 41.26274,-0.0121 61.89423,-0.018 -4.9e-4,-1.86836 -9.8e-4,-3.73671 -0.001,-5.60507 m 2.63784,9.56842 c 0.27,-1e-5 0.54001,-3e-5 0.81001,-5e-5 0.006,-30.71737 0.011,-61.43475 0.0161,-92.15214 m -0.33655,14.13983 c 0.001,-4.60046 0.002,-9.20092 0.003,-13.80138 25.21859,0.003 50.43711,0.006 75.65557,0.008 8e-5,-0.36043 1.6e-4,-0.72085 2.4e-4,-1.08128 m -13.83564,-4.827 c 3.48269,2.2e-4 6.96537,4.5e-4 10.44806,6.8e-4 2e-5,-19.537 7e-5,-39.07398 1.5e-4,-58.61093 m 1.0936,13.22197 c -0.004,-16.98621 -0.009,-33.97245 -0.0128,-50.95874 10.97103,0.001 21.9421,0.002 32.9132,0.004 m -10.52061,-3.32978 c 13.50304,-0.003 27.00613,-0.007 40.50925,-0.0102 -0.002,-12.44144 -0.004,-24.88284 -0.006,-37.3242 0.0289,-3.75207 0.0578,-7.50414 0.0867,-11.25621 m 4.40328,13.81283 c 0.15397,-19.78558 0.30797,-39.57116 0.46198,-59.35674 3.97215,0.0103 7.94429,0.0206 11.91644,0.0309 m -8.30622,-2.45524 c 24.08385,0.0684 48.16778,0.13666 72.25178,0.20485 m -8.17376,-0.94199 c 14.89997,0.0377 29.79999,0.0754 44.70005,0.11318 -0.0723,-7.82206 -0.14455,-15.64412 -0.2168,-23.46617 m -1.4305,10.68538 c -0.2508,-27.88131 -0.50152,-55.76277 -0.75217,-83.64437 m 1.00423,7.16735 c -0.0851,-9.51093 -0.17026,-19.02186 -0.25539,-28.53279 21.51134,0.0684 43.0227,0.13676 64.53406,0.20516 m -14.18826,-0.6558 c 19.92351,0.0608 39.847,0.12161 59.7705,0.18246 0.002,-8.78055 0.003,-17.56108 0.005,-26.34161 m 3.20293,8.96424 c -2e-5,-10.09283 -6e-5,-20.18566 -1.2e-4,-30.27849 21.29841,0.10276 42.59674,0.20552 63.89499,0.30829 m -12.59436,2.13934 c 29.51873,0.13907 59.03723,0.27814 88.55549,0.4172 m -12.45094,-3.77363 c 5.77058,0.0268 11.54117,0.0536 17.31175,0.0805 -0.002,-20.2944 -0.005,-40.58872 -0.007,-60.88299 3.30158,-7.3e-4 6.60316,-0.001 9.90474,-0.002 m -8.12169,4.64125 c 3e-5,-0.33726 6e-5,-0.67452 9e-5,-1.01179 22.75661,0.003 45.5132,0.007 68.26979,0.01 m -335.45074,105.37494 26.39086,0.0839 M 905.31567,132.11538 h 23.54553 m -80.37321,60.54623 24.4681,0.11932 M 403.40575,604.1361 v -31.19751 m 184.96008,-215.7479 27.81363,0.0725"
       id="path8"
       sodipodi:nodetypes="cccccccccccccccc"
       inkscape:path-effect="#path-effect7"
       inkscape:original-d="m 331.80123,722.09629 v -71.60452 h 71.60452 v -93.79184 h 75.63857 V 453.83146 h 63.53641 v -37.31503 l 0.46733,-59.44379 114.40375,0.29801 -1.06969,-119.27039 112.10583,0.35656 v -46.18534 l 146.23458,0.71313 v -60.86923 h 75.63857"
       transform="translate(349.4306,202.40412)" />
    <path
       style="fill:#1e3b19;fill-opacity:0.659574;stroke:#000000;stroke-width:3.27685;stroke-dasharray:none;stroke-opacity:1"
       d="m 88.06799,733.66987 c 0.572592,-27.16982 0.262205,-53.75832 -0.01979,-80.47737 m -0.925975,16.88466 c -0.101747,-24.07973 0.269451,-47.85857 0.811273,-71.5802 m -1.969674,16.5047 c -0.338714,-25.02751 0.03064,-50.11485 0.398503,-75.53644 m 1.504087,17.36767 c 0.696759,-31.26674 0.51196,-63.12571 1.033947,-94.42451 m -2.196224,24.94274 c -0.234848,-28.5331 0.741389,-56.82604 2.208847,-85.48971 m -0.950939,24.07724 c -0.224102,-25.23383 0.472503,-51.51078 1.531658,-78.32111 m -2.859753,18.07091 c -0.19918,-24.8918 0.417243,-49.89559 1.356158,-75.00781 m 1.569951,16.36003 c 0.276903,-23.50262 -0.0035,-46.52171 -0.565518,-69.18832 m 0.755556,15.69054 c 0.44493,-30.48576 0.110868,-61.84669 -0.144398,-93.50936 m 0.180599,24.48393 c -0.12898,-29.76631 0.583194,-60.10732 1.523037,-89.618803 M 87.828733,729.34196 c 0.640766,-27.23734 0.407056,-54.80107 0.379704,-82.38079 m -2.040634,18.34874 c 0.683217,-29.69881 0.29869,-60.28209 0.225474,-90.99149 m -0.880173,25.55516 c 0.5256,-27.75972 0.696922,-54.79118 1.402696,-80.86702 m 1.305885,18.29229 C 87.937417,513.2724 87.901753,489.12993 87.510352,465.64282 m 0.650631,15.3932 c 0.159341,-26.62896 -0.105518,-52.81585 -0.667895,-79.09224 m 0.07113,18.74886 c -0.09178,-30.21594 0.641469,-60.71396 1.688324,-90.63371 m 0.331805,25.36526 c 0.373615,-32.16634 0.271261,-65.67416 0.420393,-99.77425 m -0.946127,28.74966 c 0.162052,-32.35765 0.474257,-64.63174 1.068847,-95.92034 m -2.163739,26.58891 c 0.161656,-27.29729 0.751178,-54.9969 1.902036,-82.89616 m -3.187846,22.25457 c 0.345554,-20.14895 0.652517,-40.18345 1.215493,-60.295834 M 86.299754,737.48242 c 0.28408,-31.64485 0.154618,-63.42126 0.05899,-95.73419 m 0.379493,26.04427 c -0.256333,-33.31191 0.567236,-65.0679 1.398699,-97.13671 m -1.548161,30.21953 c 0.151654,-31.79746 0.255903,-64.25616 0.394361,-97.96746 m -0.760105,30.12951 c -0.120269,-33.27755 0.575381,-66.31835 1.357382,-99.53692 m 0.448472,26.11677 c 0.461073,-29.38183 0.177314,-58.89405 -0.01929,-87.28365 m 1.020087,24.46234 c -0.09376,-23.77766 -0.100278,-47.37027 -0.291136,-70.80564 m 0.600721,15.9273 c 0.276653,-29.50408 0.398769,-58.47609 0.761492,-87.70602 m -0.350516,23.39709 c -0.277964,-24.78267 -0.166706,-49.9361 -0.291544,-75.14599 m -1.445982,17.34563 c 0.09965,-27.79758 0.548106,-56.5927 1.338192,-85.92081 m -1.886341,19.09711 c -0.107258,-21.57643 0.129421,-42.61746 0.478722,-63.460548 M 86.486606,732.04519 c -0.03945,-26.86946 0.445049,-54.434 1.165314,-81.71613 m 2.290823,17.79021 c 0.219002,-27.53506 0.208312,-55.1452 0.218825,-82.63475 m -1.42527,20.81802 c 0.356216,-30.53006 -0.261108,-60.59403 -1.228609,-90.22481 m 0.131065,22.19661 c -0.08443,-31.47796 0.248264,-62.56062 0.457723,-93.59685 m 2.175725,25.47799 c 0.625569,-29.4081 0.27669,-58.39629 0.154297,-86.72501 m -3.616487,26.30867 c -0.02036,-30.57762 0.568242,-61.54823 1.408469,-92.35224 m -0.621819,20.49526 c -0.317441,-24.2841 -0.03984,-47.90047 0.219004,-71.5217 m 2.020916,18.41591 c 0.50093,-32.9484 -0.870793,-65.9566 -3.029142,-99.3703 m 3.567796,31.26847 c 0.577954,-31.74123 0.503523,-63.82662 1.047642,-95.65171 m -3.263147,22.81981 c 0.06459,-17.32291 0.3015,-34.52345 0.707379,-51.540084 M 86.861509,730.43573 c -0.36651,-29.40482 0.789618,-59.53854 2.347533,-89.89428 m -2.46509,22.27412 c -0.217295,-31.96409 0.777164,-62.45402 2.100295,-92.80699 m 1.0726,27.10566 c -0.03243,-25.18875 0.130547,-50.34334 0.274928,-75.50753 m -0.824024,15.4405 C 89.039869,511.90123 89.23992,486.15498 89.217902,460.47915 m -0.522012,17.04434 c -0.331831,-24.18815 0.0013,-48.16807 0.335507,-72.12609 m -1.086417,18.16731 c 0.06355,-29.16114 0.636967,-59.33296 1.604725,-89.62291 m -0.824279,22.86243 c 0.157875,-32.86946 0.412006,-65.56813 0.867068,-98.09201 m -2.070348,28.11397 c 0.464319,-30.65037 0.909491,-60.85115 2.206276,-91.20434 m 0.133118,24.10065 c 0.11793,-33.36409 -0.924931,-66.64826 -3.145341,-100.18488 m 3.311087,31.55264 c 0.452212,-20.93468 0.212311,-41.887 -0.280869,-63.109391 M 87.195319,732.81046 c -0.127572,-31.55838 0.02647,-62.20886 -0.186795,-93.13484 m 1.998682,28.23033 c 0.259662,-28.03345 0.400387,-56.99446 0.744256,-86.30784 m -2.900415,20.96234 c -0.366357,-28.68723 0.141159,-55.82556 0.52364,-82.51189 m -2.195664,22.62884 c 0.129744,-26.01904 0.552626,-52.15265 1.332909,-78.1764 m 1.069273,16.53249 c 0.161355,-32.66375 -0.09304,-65.32162 -0.651078,-98.28198 m 0.664837,30.07249 c -0.342666,-26.78139 0.180752,-53.56572 0.702981,-79.92197 m -0.834812,17.87835 c -0.175375,-27.74136 0.600938,-54.39145 1.786278,-80.94611 m 1.81765,18.61331 c 0.122027,-26.49898 -0.536924,-52.26386 -1.932059,-77.65844 m -2.39909,19.09538 c 0.515942,-29.69183 1.030619,-59.91722 2.531935,-90.37383 m 0.304282,22.65317 C 89.249042,137.96949 89.221298,114.56016 88.845547,91.608337 M 86.532591,735.65436 c 0.424453,-31.68763 0.218731,-63.81293 0.213631,-96.36303 m 0.725792,27.06882 c -0.08041,-25.8558 0.343991,-51.0239 0.97876,-76.23155 m -1.877684,15.44442 c -0.17236,-24.42974 0.04864,-48.75201 0.240078,-73.03137 m 0.831057,19.23924 c -0.425393,-30.26792 0.410015,-60.75292 1.165542,-90.81054 m -1.583119,22.93076 c -0.0084,-24.18989 0.648928,-48.13497 1.822682,-71.76285 m 1.325677,17.24189 c 0.01096,-26.03827 -0.03459,-51.42795 -0.290678,-76.88378 m 0.57282,16.35025 c 0.406171,-24.32256 -0.02613,-47.9548 -0.796522,-71.51697 m -1.564918,16.62148 c 0.428828,-26.04083 0.669369,-52.98919 1.34989,-80.05124 m -2.328736,16.64802 c 0.299778,-25.58065 0.272006,-51.29068 0.280929,-76.95246 m 2.297949,18.76212 C 89.59981,159.97676 89.482468,127.1057 88.339291,94.106079 m 0.322897,230.646641 0.0909,-24.50575 m 0.613269,-165.32491 0.0811,-21.86355 m -0.309483,83.43025 0.08428,-22.72048 m -1.749555,471.64433 0.10746,-28.96892 m 0.729935,-196.77564 0.0958,-25.82685"
       id="path2-3"
       sodipodi:nodetypes="cc"
       inkscape:path-effect="#path-effect19"
       inkscape:original-d="M 87.129552,737.92006 89.548656,85.778889"
       transform="translate(349.4306,202.40412)" />
    <path
       style="fill:none;fill-opacity:1;stroke:#ebe114;stroke-width:4.03276;stroke-dasharray:none;stroke-dashoffset:0;stroke-opacity:1"
       d="m 1017.3521,663.35905 c 27.9928,-0.90028 53.7781,-0.34725 79.6343,-0.12059 m -11.0597,-3.97299 c 23.443,-0.40156 48.0685,-0.0509 73.1205,0.4428 m -10.399,0.79157 c 2.8225,-0.0507 5.6689,-0.10479 8.5364,-0.16303 m -140.5825,-1.1724 c 33.1407,1.06436 64.0775,0.64816 96.7813,1.63239 m -15.1459,-3.36735 c 22.1334,-0.56145 46.2395,-0.72958 71.3745,-1.31241 m -156.6356,5.71138 c 24.7239,0.71709 51.7495,-1.17364 79.6816,-4.39783 m -14.4019,-0.43839 c 24.167,0.01 50.373,-0.26066 77.3852,-0.80207 m -3.5676,0.88009 c 4.2873,-0.041 8.5307,-0.0438 12.7339,-0.01 m -63.3234,1.93975 h 26.391 m 21.8598,0 h 23.5456 m -39.1945,0 h 24.4684 m -138.5751,0 h 31.1975 m 26.1819,0 h 27.8137"
       id="path26"
       inkscape:path-effect="#path-effect26"
       inkscape:original-d="m 1009,659.00001 h 162"
       transform="translate(240.41631,-49.497473)" />
    <path
       style="fill:none;fill-opacity:1;stroke:#42ba0f;stroke-width:4.03276;stroke-dasharray:none;stroke-dashoffset:0;stroke-opacity:1"
       d="m 1017.3521,700.37542 c 27.9928,-0.90028 53.7781,-0.34725 79.6343,-0.12059 m -2.7209,-3.97299 c 23.4431,-0.40156 48.0686,-0.0509 73.1206,0.4428 m -153.0583,0.79157 c 23.7795,-0.42727 49.3291,-1.00414 74.875,-2.4166 m 2.9071,1.08117 c 24.2387,0.77846 47.2955,0.76537 70.7301,1.08696 m -154.8636,-2.82192 c 27.406,-0.6952 57.8398,-0.79002 89.5016,-1.81167 m -3.1735,6.21064 c 22.7711,0.66045 47.4946,-0.89163 73.0807,-3.65979 m -65.901,0.83138 h 26.391 m 21.8598,0 h 23.5456 m -39.1945,0 h 24.4684 m -138.5751,0 h 31.1975 m 26.1819,0 h 27.8137"
       id="path26-3"
       inkscape:path-effect="#path-effect27"
       inkscape:original-d="m 1009,696.01638 h 162"
       transform="translate(240.41631,-49.497473)" />
    <path
       style="fill:none;fill-opacity:1;stroke:#424787;stroke-width:4.03276;stroke-dasharray:none;stroke-dashoffset:0;stroke-opacity:1"
       d="m 1017.3521,736.37542 c 27.9928,-0.90028 53.7781,-0.34725 79.6343,-0.12059 m -2.7209,-3.97299 c 23.4431,-0.40156 48.0686,-0.0509 73.1206,0.4428 m -153.0583,0.79157 c 23.7795,-0.42727 49.3291,-1.00414 74.875,-2.4166 m 2.9071,1.08117 c 24.2387,0.77846 47.2955,0.76537 70.7301,1.08696 m -154.8636,-2.82192 c 27.406,-0.6952 57.8398,-0.79002 89.5016,-1.81167 m -3.1735,6.21064 c 22.7711,0.66045 47.4946,-0.89163 73.0807,-3.65979 m -67.7861,0.83138 h 30.1612 m 18.2929,0 h 26.9092 m -42.624,0 h 27.9638 m -142.5512,0 h 35.6543 m 21.9668,0 h 31.7871"
       id="path26-1"
       inkscape:path-effect="#path-effect28"
       inkscape:original-d="m 1009,732.01638 h 162"
       transform="translate(240.41631,-49.497473)" />
    <text
       xml:space="preserve"
       style="font-style:normal;font-variant:normal;font-weight:bold;font-stretch:normal;font-size:32px;font-family:Arial;-inkscape-font-specification:'Arial Bold';fill:#000000;fill-opacity:1;stroke:#424787;stroke-width:0;stroke-dasharray:none;stroke-dashoffset:0;stroke-opacity:1"
       x="1431.1046"
       y="617.74792"
       id="text28"><tspan
         sodipodi:role="line"
         id="tspan28"
         x="1431.1046"
         y="617.74792"
         style="font-style:normal;font-variant:normal;font-weight:bold;font-stretch:normal;font-size:32px;font-family:Monospace;-inkscape-font-specification:'Monospace Bold';fill:#000000;fill-opacity:1;stroke:#000000;stroke-width:0;stroke-dasharray:none;stroke-opacity:1">Симуляция</tspan></text>
    <text
       xml:space="preserve"
       style="font-style:normal;font-variant:normal;font-weight:bold;font-stretch:normal;font-size:32px;font-family:Arial;-inkscape-font-specification:'Arial Bold';fill:#000000;fill-opacity:1;stroke:#424787;stroke-width:0;stroke-dasharray:none;stroke-dashoffset:0;stroke-opacity:1"
       x="1430.7185"
       y="655.71259"
       id="text28-1"><tspan
         sodipodi:role="line"
         id="tspan28-9"
         x="1430.7185"
         y="655.71259"
         style="font-style:normal;font-variant:normal;font-weight:bold;font-stretch:normal;font-size:32px;font-family:Monospace;-inkscape-font-specification:'Monospace Bold';fill:#000000;fill-opacity:1;stroke:#000000;stroke-width:0;stroke-dasharray:none;stroke-opacity:1">Форм. вер-ия</tspan></text>
    <text
       xml:space="preserve"
       style="font-style:normal;font-variant:normal;font-weight:bold;font-stretch:normal;font-size:32px;font-family:Arial;-inkscape-font-specification:'Arial Bold';fill:#000000;fill-opacity:1;stroke:#424787;stroke-width:0;stroke-dasharray:none;stroke-dashoffset:0;stroke-opacity:1"
       x="1429.781"
       y="693.4527"
       id="text28-3"><tspan
         sodipodi:role="line"
         id="tspan28-4"
         x="1429.781"
         y="693.4527"
         style="font-style:normal;font-variant:normal;font-weight:bold;font-stretch:normal;font-size:32px;font-family:Monospace;-inkscape-font-specification:'Monospace Bold';fill:#000000;fill-opacity:1;stroke:#000000;stroke-width:0;stroke-dasharray:none;stroke-opacity:1">Разработка</tspan></text>
    <path
       d="M 303.87063,263.83453 V 1033.4335 M 326.96088,263.83453 V 1033.4335 M 350.05112,263.83453 V 1033.4335 M 373.14137,263.83453 V 1033.4335 M 396.23161,263.83453 V 1033.4335 M 419.32184,263.83453 V 1033.4335 M 442.4121,263.83453 V 1033.4335 M 465.50233,263.83453 V 1033.4335 M 488.59257,263.83453 V 1033.4335 M 511.68282,263.83453 V 1033.4335 M 534.77306,263.83453 V 1033.4335 M 557.8633,263.83453 V 1033.4335 M 580.95354,263.83453 V 1033.4335 M 604.04378,263.83453 V 1033.4335 M 627.13403,263.83453 V 1033.4335 M 650.22427,263.83453 V 1033.4335 M 673.3145,263.83453 V 1033.4335 M 696.40476,263.83453 V 1033.4335 M 719.49498,263.83453 V 1033.4335 M 742.58523,263.83453 V 1033.4335 M 765.67547,263.83453 V 1033.4335 M 788.76571,263.83453 V 1033.4335 M 811.85596,263.83453 V 1033.4335 M 834.9462,263.83453 v 769.59897 m 23.09024,-769.59897 v 769.59897 m 23.09025,-769.59897 v 769.59897 m 23.09023,-769.59897 v 769.59897 m 23.09024,-769.59897 v 769.59897 m 23.09025,-769.59897 v 769.59897 m 23.09023,-769.59897 v 769.59897 m 23.09025,-769.59897 v 769.59897 m 23.09031,-769.59897 v 769.59897 m 23.0902,-769.59897 v 769.59897 m 23.0902,-769.59897 v 769.59897 m 23.0903,-769.59897 v 769.59897 m 23.0903,-769.59897 v 769.59897 m 23.0901,-769.59897 v 769.59897 m 23.0903,-769.59897 v 769.59897 m 23.0902,-769.59897 v 769.59897 m 23.0904,-769.59897 v 769.59897 m 23.0901,-769.59897 v 769.59897 m 23.0902,-769.59897 v 769.59897 m 23.0902,-769.59897 v 769.59897 m 23.0904,-769.59897 v 769.59897 m 23.0902,-769.59897 v 769.59897 m 23.0903,-769.59897 v 769.59897 m 23.0901,-769.59897 v 769.59897 m 23.0904,-769.59897 v 769.59897 m 23.0901,-769.59897 v 769.59897 m 23.0903,-769.59897 v 769.59897 m 23.0902,-769.59897 v 769.59897 m 23.0904,-769.59897 v 769.59897 m 23.0901,-769.59897 v 769.59897 m 23.0903,-769.59897 v 769.59897 m 23.0901,-769.59897 v 769.59897 m 23.0904,-769.59897 v 769.59897 m 23.0902,-769.59897 v 769.59897 m 23.0903,-769.59897 v 769.59897 m 23.0901,-769.59897 v 769.59897 m 23.0903,-769.59897 v 769.59897 m 23.0903,-769.59897 V 1033.4335 M 303.87063,263.83453 H 1700.1939 M 303.87063,282.92419 H 1700.1939 M 303.87063,302.01385 H 1700.1939 M 303.87063,321.10351 H 1700.1939 M 303.87063,340.19318 H 1700.1939 M 303.87063,359.28283 H 1700.1939 M 303.87063,378.37249 H 1700.1939 M 303.87063,397.46215 H 1700.1939 M 303.87063,416.55182 H 1700.1939 M 303.87063,435.64148 H 1700.1939 M 303.87063,454.73115 H 1700.1939 M 303.87063,473.82081 H 1700.1939 M 303.87063,492.91047 H 1700.1939 M 303.87063,512.00012 H 1700.1939 M 303.87063,531.08978 H 1700.1939 M 303.87063,550.17944 H 1700.1939 M 303.87063,569.2691 H 1700.1939 M 303.87063,588.35876 H 1700.1939 M 303.87063,607.44841 H 1700.1939 M 303.87063,626.53808 H 1700.1939 M 303.87063,645.62774 H 1700.1939 M 303.87063,664.7174 H 1700.1939 M 303.87063,683.80705 H 1700.1939 M 303.87063,702.89671 H 1700.1939 M 303.87063,721.98637 H 1700.1939 M 303.87063,741.07603 H 1700.1939 M 303.87063,760.1657 H 1700.1939 M 303.87063,779.25536 H 1700.1939 M 303.87063,798.34502 H 1700.1939 M 303.87063,817.43468 H 1700.1939 M 303.87063,836.52433 H 1700.1939 M 303.87063,855.614 H 1700.1939 M 303.87063,874.70371 H 1700.1939 M 303.87063,893.79337 H 1700.1939 M 303.87063,912.88303 H 1700.1939 M 303.87063,931.97269 H 1700.1939 M 303.87063,951.06235 H 1700.1939 M 303.87063,970.15201 H 1700.1939 M 303.87063,989.24167 H 1700.1939 M 303.87063,1008.3314 H 1700.1939 M 303.87063,1027.421 H 1700.1939"
       style="fill:none;stroke:#000000;stroke-width:0.699829px;stroke-opacity:0.363636"
       id="path28" />
    <text
       xml:space="preserve"
       style="font-style:normal;font-variant:normal;font-weight:bold;font-stretch:normal;font-size:32px;font-family:Arial;-inkscape-font-specification:'Arial Bold';fill:#000000;fill-opacity:1;stroke:#424787;stroke-width:0;stroke-dasharray:none;stroke-dashoffset:0;stroke-opacity:1"
       x="836.68634"
       y="965.77972"
       id="text28-5"><tspan
         sodipodi:role="line"
         id="tspan28-98"
         x="836.68634"
         y="965.77972"
         style="font-style:normal;font-variant:normal;font-weight:bold;font-stretch:normal;font-size:32px;font-family:Monospace;-inkscape-font-specification:'Monospace Bold';fill:#000000;fill-opacity:1;stroke:#000000;stroke-width:0;stroke-dasharray:none;stroke-opacity:1">Время</tspan></text>
    <text
       xml:space="preserve"
       style="font-style:normal;font-variant:normal;font-weight:bold;font-stretch:normal;font-size:32px;font-family:Arial;-inkscape-font-specification:'Arial Bold';fill:#000000;fill-opacity:1;stroke:#424787;stroke-width:0;stroke-dasharray:none;stroke-dashoffset:0;stroke-opacity:1"
       x="-714.15601"
       y="405.49707"
       id="text28-5-8"
       transform="rotate(-90)"><tspan
         sodipodi:role="line"
         id="tspan28-98-0"
         x="-714.15601"
         y="405.49707"
         style="font-style:normal;font-variant:normal;font-weight:bold;font-stretch:normal;font-size:32px;font-family:Monospace;-inkscape-font-specification:'Monospace Bold';fill:#000000;fill-opacity:1;stroke:#000000;stroke-width:0;stroke-dasharray:none;stroke-opacity:1">Прогресс</tspan></text>
  </g>
</svg>
